%TF.GenerationSoftware,KiCad,Pcbnew,5.1.8-5.1.8*%
%TF.CreationDate,2022-05-17T18:34:16+02:00*%
%TF.ProjectId,FloppyEmuButtonPanel,466c6f70-7079-4456-9d75-427574746f6e,1.0*%
%TF.SameCoordinates,Original*%
%TF.FileFunction,Copper,L1,Top*%
%TF.FilePolarity,Positive*%
%FSLAX46Y46*%
G04 Gerber Fmt 4.6, Leading zero omitted, Abs format (unit mm)*
G04 Created by KiCad (PCBNEW 5.1.8-5.1.8) date 2022-05-17 18:34:16*
%MOMM*%
%LPD*%
G01*
G04 APERTURE LIST*
%TA.AperFunction,ComponentPad*%
%ADD10C,1.700000*%
%TD*%
%TA.AperFunction,ComponentPad*%
%ADD11R,1.700000X1.700000*%
%TD*%
%TA.AperFunction,ComponentPad*%
%ADD12C,1.600000*%
%TD*%
%TA.AperFunction,ComponentPad*%
%ADD13O,1.600000X1.600000*%
%TD*%
%TA.AperFunction,ComponentPad*%
%ADD14O,1.700000X1.700000*%
%TD*%
%TA.AperFunction,ComponentPad*%
%ADD15C,2.000000*%
%TD*%
%TA.AperFunction,Conductor*%
%ADD16C,0.500000*%
%TD*%
%TA.AperFunction,Conductor*%
%ADD17C,0.254000*%
%TD*%
%TA.AperFunction,Conductor*%
%ADD18C,0.100000*%
%TD*%
G04 APERTURE END LIST*
D10*
%TO.P,J1,10*%
%TO.N,/SELECT*%
X122555000Y-85725000D03*
%TO.P,J1,9*%
%TO.N,/NEXT*%
X122555000Y-88265000D03*
%TO.P,J1,8*%
%TO.N,/PREVIOUS*%
X125095000Y-85725000D03*
%TO.P,J1,7*%
%TO.N,GND*%
X125095000Y-88265000D03*
%TO.P,J1,6*%
%TO.N,/RESET*%
X127635000Y-85725000D03*
%TO.P,J1,5*%
%TO.N,Net-(J1-Pad5)*%
X127635000Y-88265000D03*
%TO.P,J1,4*%
%TO.N,/STATUS*%
X130175000Y-85725000D03*
%TO.P,J1,3*%
%TO.N,Net-(J1-Pad3)*%
X130175000Y-88265000D03*
%TO.P,J1,2*%
%TO.N,+5V*%
X132715000Y-85725000D03*
D11*
%TO.P,J1,1*%
%TO.N,Net-(J1-Pad1)*%
X132715000Y-88265000D03*
%TD*%
D12*
%TO.P,R2,1*%
%TO.N,+5V*%
X131826000Y-96012000D03*
D13*
%TO.P,R2,2*%
%TO.N,Net-(D2-Pad2)*%
X124206000Y-96012000D03*
%TD*%
D11*
%TO.P,D2,1*%
%TO.N,GND*%
X106426000Y-90424000D03*
D14*
%TO.P,D2,2*%
%TO.N,Net-(D2-Pad2)*%
X106426000Y-87884000D03*
%TD*%
D12*
%TO.P,R1,1*%
%TO.N,+5V*%
X118745000Y-77470000D03*
D13*
%TO.P,R1,2*%
%TO.N,Net-(D1-Pad2)*%
X111125000Y-77470000D03*
%TD*%
D11*
%TO.P,D1,1*%
%TO.N,/STATUS*%
X106400000Y-80000000D03*
D14*
%TO.P,D1,2*%
%TO.N,Net-(D1-Pad2)*%
X106400000Y-77460000D03*
%TD*%
D15*
%TO.P,SW1,1*%
%TO.N,GND*%
X118260000Y-68580000D03*
%TO.P,SW1,2*%
%TO.N,/PREVIOUS*%
X118260000Y-73080000D03*
%TO.P,SW1,1*%
%TO.N,GND*%
X111760000Y-68580000D03*
%TO.P,SW1,2*%
%TO.N,/PREVIOUS*%
X111760000Y-73080000D03*
%TD*%
%TO.P,SW2,2*%
%TO.N,/SELECT*%
X111760000Y-85780000D03*
%TO.P,SW2,1*%
%TO.N,GND*%
X111760000Y-81280000D03*
%TO.P,SW2,2*%
%TO.N,/SELECT*%
X118260000Y-85780000D03*
%TO.P,SW2,1*%
%TO.N,GND*%
X118260000Y-81280000D03*
%TD*%
%TO.P,SW3,1*%
%TO.N,/NEXT*%
X118260000Y-93980000D03*
%TO.P,SW3,2*%
%TO.N,GND*%
X118260000Y-98480000D03*
%TO.P,SW3,1*%
%TO.N,/NEXT*%
X111760000Y-93980000D03*
%TO.P,SW3,2*%
%TO.N,GND*%
X111760000Y-98480000D03*
%TD*%
%TO.P,SW4,2*%
%TO.N,/RESET*%
X124460000Y-73080000D03*
%TO.P,SW4,1*%
%TO.N,GND*%
X124460000Y-68580000D03*
%TO.P,SW4,2*%
%TO.N,/RESET*%
X130960000Y-73080000D03*
%TO.P,SW4,1*%
%TO.N,GND*%
X130960000Y-68580000D03*
%TD*%
D16*
%TO.N,+5V*%
X132715000Y-85725000D02*
X132715000Y-84201000D01*
X134620000Y-85725000D02*
X132715000Y-85725000D01*
X135255000Y-88900000D02*
X135255000Y-86360000D01*
X135255000Y-86360000D02*
X134620000Y-85725000D01*
X125984000Y-77470000D02*
X126809500Y-78295500D01*
X118745000Y-77470000D02*
X125984000Y-77470000D01*
X126809500Y-78295500D02*
X126492000Y-77978000D01*
X132715000Y-84201000D02*
X126809500Y-78295500D01*
X131826000Y-96012000D02*
X131826000Y-92329000D01*
X133667500Y-90487500D02*
X135255000Y-88900000D01*
X131826000Y-92329000D02*
X133667500Y-90487500D01*
X133350000Y-90805000D02*
X133667500Y-90487500D01*
%TO.N,/STATUS*%
X107025000Y-79375000D02*
X106400000Y-80000000D01*
X125027081Y-79375000D02*
X107025000Y-79375000D01*
X130175000Y-84522919D02*
X125027081Y-79375000D01*
X130175000Y-85725000D02*
X130175000Y-84522919D01*
%TO.N,Net-(D2-Pad2)*%
X124206000Y-96012000D02*
X124206000Y-94488000D01*
X124206000Y-94488000D02*
X119380000Y-89662000D01*
X110744000Y-87884000D02*
X112522000Y-89662000D01*
X106426000Y-87884000D02*
X110744000Y-87884000D01*
X119380000Y-89662000D02*
X112522000Y-89662000D01*
%TD*%
D17*
%TO.N,GND*%
X110624585Y-67624193D02*
X110360186Y-67719956D01*
X110219296Y-68009571D01*
X110137616Y-68321108D01*
X110118282Y-68642595D01*
X110162039Y-68961675D01*
X110267205Y-69266088D01*
X110360186Y-69440044D01*
X110624585Y-69535807D01*
X110508917Y-69651475D01*
X110580442Y-69723000D01*
X110236000Y-69723000D01*
X110211224Y-69725440D01*
X110187399Y-69732667D01*
X110165443Y-69744403D01*
X110146197Y-69760197D01*
X110130403Y-69779443D01*
X110118667Y-69801399D01*
X110111440Y-69825224D01*
X110109000Y-69850000D01*
X110109000Y-74676000D01*
X110111440Y-74700776D01*
X110118667Y-74724601D01*
X110130403Y-74746557D01*
X110146197Y-74765803D01*
X110165443Y-74781597D01*
X110187399Y-74793333D01*
X110211224Y-74800560D01*
X110236000Y-74803000D01*
X119888000Y-74803000D01*
X119912776Y-74800560D01*
X119936601Y-74793333D01*
X119958557Y-74781597D01*
X119977803Y-74765803D01*
X119993597Y-74746557D01*
X120005333Y-74724601D01*
X120012560Y-74700776D01*
X120015000Y-74676000D01*
X120015000Y-69850000D01*
X120012560Y-69825224D01*
X120005333Y-69801399D01*
X119993597Y-69779443D01*
X119977803Y-69760197D01*
X119958557Y-69744403D01*
X119936601Y-69732667D01*
X119912776Y-69725440D01*
X119888000Y-69723000D01*
X119439558Y-69723000D01*
X119511083Y-69651475D01*
X119395415Y-69535807D01*
X119659814Y-69440044D01*
X119800704Y-69150429D01*
X119882384Y-68838892D01*
X119901718Y-68517405D01*
X119857961Y-68198325D01*
X119752795Y-67893912D01*
X119659814Y-67719956D01*
X119395415Y-67624193D01*
X119459608Y-67560000D01*
X123260392Y-67560000D01*
X123324585Y-67624193D01*
X123060186Y-67719956D01*
X122919296Y-68009571D01*
X122837616Y-68321108D01*
X122818282Y-68642595D01*
X122862039Y-68961675D01*
X122967205Y-69266088D01*
X123060186Y-69440044D01*
X123324585Y-69535807D01*
X123208917Y-69651475D01*
X123280442Y-69723000D01*
X122936000Y-69723000D01*
X122911224Y-69725440D01*
X122887399Y-69732667D01*
X122865443Y-69744403D01*
X122846197Y-69760197D01*
X122830403Y-69779443D01*
X122818667Y-69801399D01*
X122811440Y-69825224D01*
X122809000Y-69850000D01*
X122809000Y-74676000D01*
X122811440Y-74700776D01*
X122818667Y-74724601D01*
X122830403Y-74746557D01*
X122846197Y-74765803D01*
X122865443Y-74781597D01*
X122887399Y-74793333D01*
X122911224Y-74800560D01*
X122936000Y-74803000D01*
X132588000Y-74803000D01*
X132612776Y-74800560D01*
X132636601Y-74793333D01*
X132658557Y-74781597D01*
X132677803Y-74765803D01*
X132693597Y-74746557D01*
X132705333Y-74724601D01*
X132712560Y-74700776D01*
X132715000Y-74676000D01*
X132715000Y-70609872D01*
X134365000Y-70609872D01*
X134365000Y-71050128D01*
X134450890Y-71481925D01*
X134619369Y-71888669D01*
X134863962Y-72254729D01*
X135175271Y-72566038D01*
X135541331Y-72810631D01*
X135948075Y-72979110D01*
X136379872Y-73065000D01*
X136820128Y-73065000D01*
X137251925Y-72979110D01*
X137658669Y-72810631D01*
X138024729Y-72566038D01*
X138336038Y-72254729D01*
X138580631Y-71888669D01*
X138749110Y-71481925D01*
X138835000Y-71050128D01*
X138835000Y-70609872D01*
X138749110Y-70178075D01*
X138580631Y-69771331D01*
X138336038Y-69405271D01*
X138024729Y-69093962D01*
X137658669Y-68849369D01*
X137251925Y-68680890D01*
X136820128Y-68595000D01*
X136379872Y-68595000D01*
X135948075Y-68680890D01*
X135541331Y-68849369D01*
X135175271Y-69093962D01*
X134863962Y-69405271D01*
X134619369Y-69771331D01*
X134450890Y-70178075D01*
X134365000Y-70609872D01*
X132715000Y-70609872D01*
X132715000Y-69850000D01*
X132712560Y-69825224D01*
X132705333Y-69801399D01*
X132693597Y-69779443D01*
X132677803Y-69760197D01*
X132658557Y-69744403D01*
X132636601Y-69732667D01*
X132612776Y-69725440D01*
X132588000Y-69723000D01*
X132139558Y-69723000D01*
X132211083Y-69651475D01*
X132095415Y-69535807D01*
X132359814Y-69440044D01*
X132500704Y-69150429D01*
X132582384Y-68838892D01*
X132601718Y-68517405D01*
X132557961Y-68198325D01*
X132452795Y-67893912D01*
X132359814Y-67719956D01*
X132095415Y-67624193D01*
X132159608Y-67560000D01*
X139640001Y-67560000D01*
X139640000Y-99540000D01*
X119499608Y-99540000D01*
X119395415Y-99435807D01*
X119659814Y-99340044D01*
X119800704Y-99050429D01*
X119882384Y-98738892D01*
X119901718Y-98417405D01*
X119857961Y-98098325D01*
X119752795Y-97793912D01*
X119659814Y-97619956D01*
X119395415Y-97524193D01*
X119510608Y-97409000D01*
X119888000Y-97409000D01*
X119912776Y-97406560D01*
X119936601Y-97399333D01*
X119958557Y-97387597D01*
X119977803Y-97371803D01*
X119993597Y-97352557D01*
X120005333Y-97330601D01*
X120012560Y-97306776D01*
X120015000Y-97282000D01*
X120015000Y-92456000D01*
X120012560Y-92431224D01*
X120005333Y-92407399D01*
X119993597Y-92385443D01*
X119977803Y-92366197D01*
X119958557Y-92350403D01*
X119936601Y-92338667D01*
X119912776Y-92331440D01*
X119888000Y-92329000D01*
X110236000Y-92329000D01*
X110211224Y-92331440D01*
X110187399Y-92338667D01*
X110165443Y-92350403D01*
X110146197Y-92366197D01*
X110130403Y-92385443D01*
X110118667Y-92407399D01*
X110111440Y-92431224D01*
X110109000Y-92456000D01*
X110109000Y-97282000D01*
X110111440Y-97306776D01*
X110118667Y-97330601D01*
X110130403Y-97352557D01*
X110146197Y-97371803D01*
X110165443Y-97387597D01*
X110187399Y-97399333D01*
X110211224Y-97406560D01*
X110236000Y-97409000D01*
X110509392Y-97409000D01*
X110624585Y-97524193D01*
X110360186Y-97619956D01*
X110219296Y-97909571D01*
X110137616Y-98221108D01*
X110118282Y-98542595D01*
X110162039Y-98861675D01*
X110267205Y-99166088D01*
X110360186Y-99340044D01*
X110624585Y-99435807D01*
X110520392Y-99540000D01*
X103022000Y-99540000D01*
X103022000Y-96009872D01*
X103885000Y-96009872D01*
X103885000Y-96450128D01*
X103970890Y-96881925D01*
X104139369Y-97288669D01*
X104383962Y-97654729D01*
X104695271Y-97966038D01*
X105061331Y-98210631D01*
X105468075Y-98379110D01*
X105899872Y-98465000D01*
X106340128Y-98465000D01*
X106771925Y-98379110D01*
X107178669Y-98210631D01*
X107544729Y-97966038D01*
X107856038Y-97654729D01*
X108100631Y-97288669D01*
X108269110Y-96881925D01*
X108355000Y-96450128D01*
X108355000Y-96009872D01*
X108269110Y-95578075D01*
X108100631Y-95171331D01*
X107856038Y-94805271D01*
X107544729Y-94493962D01*
X107178669Y-94249369D01*
X106771925Y-94080890D01*
X106340128Y-93995000D01*
X105899872Y-93995000D01*
X105468075Y-94080890D01*
X105061331Y-94249369D01*
X104695271Y-94493962D01*
X104383962Y-94805271D01*
X104139369Y-95171331D01*
X103970890Y-95578075D01*
X103885000Y-96009872D01*
X103022000Y-96009872D01*
X103022000Y-91274000D01*
X104937928Y-91274000D01*
X104950188Y-91398482D01*
X104986498Y-91518180D01*
X105045463Y-91628494D01*
X105124815Y-91725185D01*
X105221506Y-91804537D01*
X105331820Y-91863502D01*
X105451518Y-91899812D01*
X105576000Y-91912072D01*
X106140250Y-91909000D01*
X106299000Y-91750250D01*
X106299000Y-90551000D01*
X106553000Y-90551000D01*
X106553000Y-91750250D01*
X106711750Y-91909000D01*
X107276000Y-91912072D01*
X107400482Y-91899812D01*
X107520180Y-91863502D01*
X107630494Y-91804537D01*
X107727185Y-91725185D01*
X107806537Y-91628494D01*
X107865502Y-91518180D01*
X107901812Y-91398482D01*
X107914072Y-91274000D01*
X107911000Y-90709750D01*
X107752250Y-90551000D01*
X106553000Y-90551000D01*
X106299000Y-90551000D01*
X105099750Y-90551000D01*
X104941000Y-90709750D01*
X104937928Y-91274000D01*
X103022000Y-91274000D01*
X103022000Y-79150000D01*
X104911928Y-79150000D01*
X104911928Y-80850000D01*
X104924188Y-80974482D01*
X104960498Y-81094180D01*
X105019463Y-81204494D01*
X105098815Y-81301185D01*
X105195506Y-81380537D01*
X105305820Y-81439502D01*
X105425518Y-81475812D01*
X105550000Y-81488072D01*
X107250000Y-81488072D01*
X107374482Y-81475812D01*
X107494180Y-81439502D01*
X107604494Y-81380537D01*
X107701185Y-81301185D01*
X107780537Y-81204494D01*
X107839502Y-81094180D01*
X107875812Y-80974482D01*
X107888072Y-80850000D01*
X107888072Y-80260000D01*
X110560392Y-80260000D01*
X110624585Y-80324193D01*
X110360186Y-80419956D01*
X110219296Y-80709571D01*
X110137616Y-81021108D01*
X110118282Y-81342595D01*
X110162039Y-81661675D01*
X110267205Y-81966088D01*
X110360186Y-82140044D01*
X110440132Y-82169000D01*
X110236000Y-82169000D01*
X110211224Y-82171440D01*
X110187399Y-82178667D01*
X110165443Y-82190403D01*
X110146197Y-82206197D01*
X110130403Y-82225443D01*
X110118667Y-82247399D01*
X110111440Y-82271224D01*
X110109000Y-82296000D01*
X110109000Y-86999000D01*
X107620656Y-86999000D01*
X107579475Y-86937368D01*
X107372632Y-86730525D01*
X107129411Y-86568010D01*
X106859158Y-86456068D01*
X106572260Y-86399000D01*
X106279740Y-86399000D01*
X105992842Y-86456068D01*
X105722589Y-86568010D01*
X105479368Y-86730525D01*
X105272525Y-86937368D01*
X105110010Y-87180589D01*
X104998068Y-87450842D01*
X104941000Y-87737740D01*
X104941000Y-88030260D01*
X104998068Y-88317158D01*
X105110010Y-88587411D01*
X105272525Y-88830632D01*
X105404380Y-88962487D01*
X105331820Y-88984498D01*
X105221506Y-89043463D01*
X105124815Y-89122815D01*
X105045463Y-89219506D01*
X104986498Y-89329820D01*
X104950188Y-89449518D01*
X104937928Y-89574000D01*
X104941000Y-90138250D01*
X105099750Y-90297000D01*
X106299000Y-90297000D01*
X106299000Y-90277000D01*
X106553000Y-90277000D01*
X106553000Y-90297000D01*
X107752250Y-90297000D01*
X107911000Y-90138250D01*
X107914072Y-89574000D01*
X107901812Y-89449518D01*
X107865502Y-89329820D01*
X107806537Y-89219506D01*
X107727185Y-89122815D01*
X107630494Y-89043463D01*
X107520180Y-88984498D01*
X107447620Y-88962487D01*
X107579475Y-88830632D01*
X107620656Y-88769000D01*
X110377422Y-88769000D01*
X111865470Y-90257049D01*
X111893183Y-90290817D01*
X111926951Y-90318530D01*
X111926953Y-90318532D01*
X112027941Y-90401411D01*
X112181687Y-90483589D01*
X112348510Y-90534195D01*
X112478523Y-90547000D01*
X112478531Y-90547000D01*
X112522000Y-90551281D01*
X112565469Y-90547000D01*
X119013422Y-90547000D01*
X123321001Y-94854580D01*
X123321001Y-94877478D01*
X123291241Y-94897363D01*
X123091363Y-95097241D01*
X122934320Y-95332273D01*
X122826147Y-95593426D01*
X122771000Y-95870665D01*
X122771000Y-96153335D01*
X122826147Y-96430574D01*
X122934320Y-96691727D01*
X123091363Y-96926759D01*
X123291241Y-97126637D01*
X123526273Y-97283680D01*
X123787426Y-97391853D01*
X124064665Y-97447000D01*
X124347335Y-97447000D01*
X124624574Y-97391853D01*
X124885727Y-97283680D01*
X125120759Y-97126637D01*
X125320637Y-96926759D01*
X125477680Y-96691727D01*
X125585853Y-96430574D01*
X125641000Y-96153335D01*
X125641000Y-95870665D01*
X125585853Y-95593426D01*
X125477680Y-95332273D01*
X125320637Y-95097241D01*
X125120759Y-94897363D01*
X125091000Y-94877479D01*
X125091000Y-94531469D01*
X125095281Y-94488000D01*
X125091000Y-94444531D01*
X125091000Y-94444523D01*
X125078195Y-94314510D01*
X125027589Y-94147686D01*
X124945411Y-93993941D01*
X124862532Y-93892953D01*
X124862530Y-93892951D01*
X124834817Y-93859183D01*
X124801049Y-93831470D01*
X120036534Y-89066956D01*
X120008817Y-89033183D01*
X119874059Y-88922589D01*
X119720313Y-88840411D01*
X119553490Y-88789805D01*
X119423477Y-88777000D01*
X119423469Y-88777000D01*
X119380000Y-88772719D01*
X119336531Y-88777000D01*
X112888579Y-88777000D01*
X111614578Y-87503000D01*
X119888000Y-87503000D01*
X119912776Y-87500560D01*
X119936601Y-87493333D01*
X119958557Y-87481597D01*
X119977803Y-87465803D01*
X119993597Y-87446557D01*
X120005333Y-87424601D01*
X120012560Y-87400776D01*
X120015000Y-87376000D01*
X120015000Y-82296000D01*
X120012560Y-82271224D01*
X120005333Y-82247399D01*
X119993597Y-82225443D01*
X119977803Y-82206197D01*
X119958557Y-82190403D01*
X119936601Y-82178667D01*
X119912776Y-82171440D01*
X119888000Y-82169000D01*
X119579868Y-82169000D01*
X119659814Y-82140044D01*
X119800704Y-81850429D01*
X119882384Y-81538892D01*
X119901718Y-81217405D01*
X119857961Y-80898325D01*
X119752795Y-80593912D01*
X119659814Y-80419956D01*
X119395415Y-80324193D01*
X119459608Y-80260000D01*
X124660503Y-80260000D01*
X129100198Y-84699695D01*
X129021525Y-84778368D01*
X128905000Y-84952760D01*
X128788475Y-84778368D01*
X128581632Y-84571525D01*
X128338411Y-84409010D01*
X128068158Y-84297068D01*
X127781260Y-84240000D01*
X127488740Y-84240000D01*
X127201842Y-84297068D01*
X126931589Y-84409010D01*
X126688368Y-84571525D01*
X126481525Y-84778368D01*
X126365000Y-84952760D01*
X126248475Y-84778368D01*
X126041632Y-84571525D01*
X125798411Y-84409010D01*
X125528158Y-84297068D01*
X125241260Y-84240000D01*
X124948740Y-84240000D01*
X124661842Y-84297068D01*
X124391589Y-84409010D01*
X124148368Y-84571525D01*
X123941525Y-84778368D01*
X123825000Y-84952760D01*
X123708475Y-84778368D01*
X123501632Y-84571525D01*
X123258411Y-84409010D01*
X122988158Y-84297068D01*
X122701260Y-84240000D01*
X122408740Y-84240000D01*
X122121842Y-84297068D01*
X121851589Y-84409010D01*
X121608368Y-84571525D01*
X121401525Y-84778368D01*
X121239010Y-85021589D01*
X121127068Y-85291842D01*
X121070000Y-85578740D01*
X121070000Y-85871260D01*
X121127068Y-86158158D01*
X121239010Y-86428411D01*
X121401525Y-86671632D01*
X121608368Y-86878475D01*
X121782760Y-86995000D01*
X121608368Y-87111525D01*
X121401525Y-87318368D01*
X121239010Y-87561589D01*
X121127068Y-87831842D01*
X121070000Y-88118740D01*
X121070000Y-88411260D01*
X121127068Y-88698158D01*
X121239010Y-88968411D01*
X121401525Y-89211632D01*
X121608368Y-89418475D01*
X121851589Y-89580990D01*
X122121842Y-89692932D01*
X122408740Y-89750000D01*
X122701260Y-89750000D01*
X122988158Y-89692932D01*
X123258411Y-89580990D01*
X123501632Y-89418475D01*
X123626710Y-89293397D01*
X124246208Y-89293397D01*
X124323843Y-89542472D01*
X124587883Y-89668371D01*
X124871411Y-89740339D01*
X125163531Y-89755611D01*
X125453019Y-89713599D01*
X125728747Y-89615919D01*
X125866157Y-89542472D01*
X125943792Y-89293397D01*
X125095000Y-88444605D01*
X124246208Y-89293397D01*
X123626710Y-89293397D01*
X123708475Y-89211632D01*
X123824311Y-89038271D01*
X124066603Y-89113792D01*
X124915395Y-88265000D01*
X124066603Y-87416208D01*
X123824311Y-87491729D01*
X123708475Y-87318368D01*
X123501632Y-87111525D01*
X123327240Y-86995000D01*
X123501632Y-86878475D01*
X123708475Y-86671632D01*
X123825000Y-86497240D01*
X123941525Y-86671632D01*
X124148368Y-86878475D01*
X124321729Y-86994311D01*
X124246208Y-87236603D01*
X125095000Y-88085395D01*
X125943792Y-87236603D01*
X125868271Y-86994311D01*
X126041632Y-86878475D01*
X126248475Y-86671632D01*
X126365000Y-86497240D01*
X126481525Y-86671632D01*
X126688368Y-86878475D01*
X126862760Y-86995000D01*
X126688368Y-87111525D01*
X126481525Y-87318368D01*
X126365689Y-87491729D01*
X126123397Y-87416208D01*
X125274605Y-88265000D01*
X126123397Y-89113792D01*
X126365689Y-89038271D01*
X126481525Y-89211632D01*
X126688368Y-89418475D01*
X126931589Y-89580990D01*
X127201842Y-89692932D01*
X127488740Y-89750000D01*
X127781260Y-89750000D01*
X128068158Y-89692932D01*
X128338411Y-89580990D01*
X128581632Y-89418475D01*
X128788475Y-89211632D01*
X128905000Y-89037240D01*
X129021525Y-89211632D01*
X129228368Y-89418475D01*
X129471589Y-89580990D01*
X129741842Y-89692932D01*
X130028740Y-89750000D01*
X130321260Y-89750000D01*
X130608158Y-89692932D01*
X130878411Y-89580990D01*
X131121632Y-89418475D01*
X131253487Y-89286620D01*
X131275498Y-89359180D01*
X131334463Y-89469494D01*
X131413815Y-89566185D01*
X131510506Y-89645537D01*
X131620820Y-89704502D01*
X131740518Y-89740812D01*
X131865000Y-89753072D01*
X133150350Y-89753072D01*
X133072458Y-89830964D01*
X133072453Y-89830968D01*
X131230951Y-91672471D01*
X131197184Y-91700183D01*
X131169471Y-91733951D01*
X131169468Y-91733954D01*
X131086590Y-91834941D01*
X131004412Y-91988687D01*
X130953805Y-92155510D01*
X130936719Y-92329000D01*
X130941001Y-92372479D01*
X130941000Y-94877479D01*
X130911241Y-94897363D01*
X130711363Y-95097241D01*
X130554320Y-95332273D01*
X130446147Y-95593426D01*
X130391000Y-95870665D01*
X130391000Y-96153335D01*
X130446147Y-96430574D01*
X130554320Y-96691727D01*
X130711363Y-96926759D01*
X130911241Y-97126637D01*
X131146273Y-97283680D01*
X131407426Y-97391853D01*
X131684665Y-97447000D01*
X131967335Y-97447000D01*
X132244574Y-97391853D01*
X132505727Y-97283680D01*
X132740759Y-97126637D01*
X132940637Y-96926759D01*
X133097680Y-96691727D01*
X133205853Y-96430574D01*
X133261000Y-96153335D01*
X133261000Y-96009872D01*
X134365000Y-96009872D01*
X134365000Y-96450128D01*
X134450890Y-96881925D01*
X134619369Y-97288669D01*
X134863962Y-97654729D01*
X135175271Y-97966038D01*
X135541331Y-98210631D01*
X135948075Y-98379110D01*
X136379872Y-98465000D01*
X136820128Y-98465000D01*
X137251925Y-98379110D01*
X137658669Y-98210631D01*
X138024729Y-97966038D01*
X138336038Y-97654729D01*
X138580631Y-97288669D01*
X138749110Y-96881925D01*
X138835000Y-96450128D01*
X138835000Y-96009872D01*
X138749110Y-95578075D01*
X138580631Y-95171331D01*
X138336038Y-94805271D01*
X138024729Y-94493962D01*
X137658669Y-94249369D01*
X137251925Y-94080890D01*
X136820128Y-93995000D01*
X136379872Y-93995000D01*
X135948075Y-94080890D01*
X135541331Y-94249369D01*
X135175271Y-94493962D01*
X134863962Y-94805271D01*
X134619369Y-95171331D01*
X134450890Y-95578075D01*
X134365000Y-96009872D01*
X133261000Y-96009872D01*
X133261000Y-95870665D01*
X133205853Y-95593426D01*
X133097680Y-95332273D01*
X132940637Y-95097241D01*
X132740759Y-94897363D01*
X132711000Y-94877479D01*
X132711000Y-92695578D01*
X134324032Y-91082547D01*
X134324036Y-91082542D01*
X135850050Y-89556529D01*
X135883817Y-89528817D01*
X135916897Y-89488510D01*
X135994410Y-89394060D01*
X135994411Y-89394059D01*
X136076589Y-89240313D01*
X136127195Y-89073490D01*
X136140000Y-88943477D01*
X136140000Y-88943467D01*
X136144281Y-88900001D01*
X136140000Y-88856534D01*
X136140000Y-86403469D01*
X136144281Y-86360000D01*
X136140000Y-86316531D01*
X136140000Y-86316523D01*
X136127195Y-86186510D01*
X136090430Y-86065313D01*
X136076589Y-86019686D01*
X135994411Y-85865941D01*
X135911532Y-85764953D01*
X135911530Y-85764951D01*
X135883817Y-85731183D01*
X135850049Y-85703470D01*
X135276534Y-85129956D01*
X135248817Y-85096183D01*
X135114059Y-84985589D01*
X134960313Y-84903411D01*
X134793490Y-84852805D01*
X134663477Y-84840000D01*
X134663469Y-84840000D01*
X134620000Y-84835719D01*
X134576531Y-84840000D01*
X133909656Y-84840000D01*
X133868475Y-84778368D01*
X133661632Y-84571525D01*
X133600000Y-84530344D01*
X133600000Y-84244465D01*
X133604281Y-84200999D01*
X133600000Y-84157533D01*
X133600000Y-84157523D01*
X133587195Y-84027510D01*
X133536589Y-83860687D01*
X133454411Y-83706941D01*
X133430210Y-83677452D01*
X133371532Y-83605953D01*
X133371530Y-83605951D01*
X133343817Y-83572183D01*
X133310049Y-83544470D01*
X127466037Y-77700459D01*
X127466032Y-77700453D01*
X126640534Y-76874956D01*
X126612817Y-76841183D01*
X126478059Y-76730589D01*
X126324313Y-76648411D01*
X126157490Y-76597805D01*
X126027477Y-76585000D01*
X126027469Y-76585000D01*
X125984000Y-76580719D01*
X125940531Y-76585000D01*
X119879521Y-76585000D01*
X119859637Y-76555241D01*
X119659759Y-76355363D01*
X119424727Y-76198320D01*
X119163574Y-76090147D01*
X118886335Y-76035000D01*
X118603665Y-76035000D01*
X118326426Y-76090147D01*
X118065273Y-76198320D01*
X117830241Y-76355363D01*
X117630363Y-76555241D01*
X117473320Y-76790273D01*
X117365147Y-77051426D01*
X117310000Y-77328665D01*
X117310000Y-77611335D01*
X117365147Y-77888574D01*
X117473320Y-78149727D01*
X117630363Y-78384759D01*
X117735604Y-78490000D01*
X112134396Y-78490000D01*
X112239637Y-78384759D01*
X112396680Y-78149727D01*
X112504853Y-77888574D01*
X112560000Y-77611335D01*
X112560000Y-77328665D01*
X112504853Y-77051426D01*
X112396680Y-76790273D01*
X112239637Y-76555241D01*
X112039759Y-76355363D01*
X111804727Y-76198320D01*
X111543574Y-76090147D01*
X111266335Y-76035000D01*
X110983665Y-76035000D01*
X110706426Y-76090147D01*
X110445273Y-76198320D01*
X110210241Y-76355363D01*
X110010363Y-76555241D01*
X109853320Y-76790273D01*
X109745147Y-77051426D01*
X109690000Y-77328665D01*
X109690000Y-77611335D01*
X109745147Y-77888574D01*
X109853320Y-78149727D01*
X110010363Y-78384759D01*
X110115604Y-78490000D01*
X107470107Y-78490000D01*
X107553475Y-78406632D01*
X107715990Y-78163411D01*
X107827932Y-77893158D01*
X107885000Y-77606260D01*
X107885000Y-77313740D01*
X107827932Y-77026842D01*
X107715990Y-76756589D01*
X107553475Y-76513368D01*
X107346632Y-76306525D01*
X107103411Y-76144010D01*
X106833158Y-76032068D01*
X106546260Y-75975000D01*
X106253740Y-75975000D01*
X105966842Y-76032068D01*
X105696589Y-76144010D01*
X105453368Y-76306525D01*
X105246525Y-76513368D01*
X105084010Y-76756589D01*
X104972068Y-77026842D01*
X104915000Y-77313740D01*
X104915000Y-77606260D01*
X104972068Y-77893158D01*
X105084010Y-78163411D01*
X105246525Y-78406632D01*
X105378380Y-78538487D01*
X105305820Y-78560498D01*
X105195506Y-78619463D01*
X105098815Y-78698815D01*
X105019463Y-78795506D01*
X104960498Y-78905820D01*
X104924188Y-79025518D01*
X104911928Y-79150000D01*
X103022000Y-79150000D01*
X103022000Y-70609872D01*
X103885000Y-70609872D01*
X103885000Y-71050128D01*
X103970890Y-71481925D01*
X104139369Y-71888669D01*
X104383962Y-72254729D01*
X104695271Y-72566038D01*
X105061331Y-72810631D01*
X105468075Y-72979110D01*
X105899872Y-73065000D01*
X106340128Y-73065000D01*
X106771925Y-72979110D01*
X107178669Y-72810631D01*
X107544729Y-72566038D01*
X107856038Y-72254729D01*
X108100631Y-71888669D01*
X108269110Y-71481925D01*
X108355000Y-71050128D01*
X108355000Y-70609872D01*
X108269110Y-70178075D01*
X108100631Y-69771331D01*
X107856038Y-69405271D01*
X107544729Y-69093962D01*
X107178669Y-68849369D01*
X106771925Y-68680890D01*
X106340128Y-68595000D01*
X105899872Y-68595000D01*
X105468075Y-68680890D01*
X105061331Y-68849369D01*
X104695271Y-69093962D01*
X104383962Y-69405271D01*
X104139369Y-69771331D01*
X103970890Y-70178075D01*
X103885000Y-70609872D01*
X103022000Y-70609872D01*
X103022000Y-67560000D01*
X110560392Y-67560000D01*
X110624585Y-67624193D01*
%TA.AperFunction,Conductor*%
D18*
G36*
X110624585Y-67624193D02*
G01*
X110360186Y-67719956D01*
X110219296Y-68009571D01*
X110137616Y-68321108D01*
X110118282Y-68642595D01*
X110162039Y-68961675D01*
X110267205Y-69266088D01*
X110360186Y-69440044D01*
X110624585Y-69535807D01*
X110508917Y-69651475D01*
X110580442Y-69723000D01*
X110236000Y-69723000D01*
X110211224Y-69725440D01*
X110187399Y-69732667D01*
X110165443Y-69744403D01*
X110146197Y-69760197D01*
X110130403Y-69779443D01*
X110118667Y-69801399D01*
X110111440Y-69825224D01*
X110109000Y-69850000D01*
X110109000Y-74676000D01*
X110111440Y-74700776D01*
X110118667Y-74724601D01*
X110130403Y-74746557D01*
X110146197Y-74765803D01*
X110165443Y-74781597D01*
X110187399Y-74793333D01*
X110211224Y-74800560D01*
X110236000Y-74803000D01*
X119888000Y-74803000D01*
X119912776Y-74800560D01*
X119936601Y-74793333D01*
X119958557Y-74781597D01*
X119977803Y-74765803D01*
X119993597Y-74746557D01*
X120005333Y-74724601D01*
X120012560Y-74700776D01*
X120015000Y-74676000D01*
X120015000Y-69850000D01*
X120012560Y-69825224D01*
X120005333Y-69801399D01*
X119993597Y-69779443D01*
X119977803Y-69760197D01*
X119958557Y-69744403D01*
X119936601Y-69732667D01*
X119912776Y-69725440D01*
X119888000Y-69723000D01*
X119439558Y-69723000D01*
X119511083Y-69651475D01*
X119395415Y-69535807D01*
X119659814Y-69440044D01*
X119800704Y-69150429D01*
X119882384Y-68838892D01*
X119901718Y-68517405D01*
X119857961Y-68198325D01*
X119752795Y-67893912D01*
X119659814Y-67719956D01*
X119395415Y-67624193D01*
X119459608Y-67560000D01*
X123260392Y-67560000D01*
X123324585Y-67624193D01*
X123060186Y-67719956D01*
X122919296Y-68009571D01*
X122837616Y-68321108D01*
X122818282Y-68642595D01*
X122862039Y-68961675D01*
X122967205Y-69266088D01*
X123060186Y-69440044D01*
X123324585Y-69535807D01*
X123208917Y-69651475D01*
X123280442Y-69723000D01*
X122936000Y-69723000D01*
X122911224Y-69725440D01*
X122887399Y-69732667D01*
X122865443Y-69744403D01*
X122846197Y-69760197D01*
X122830403Y-69779443D01*
X122818667Y-69801399D01*
X122811440Y-69825224D01*
X122809000Y-69850000D01*
X122809000Y-74676000D01*
X122811440Y-74700776D01*
X122818667Y-74724601D01*
X122830403Y-74746557D01*
X122846197Y-74765803D01*
X122865443Y-74781597D01*
X122887399Y-74793333D01*
X122911224Y-74800560D01*
X122936000Y-74803000D01*
X132588000Y-74803000D01*
X132612776Y-74800560D01*
X132636601Y-74793333D01*
X132658557Y-74781597D01*
X132677803Y-74765803D01*
X132693597Y-74746557D01*
X132705333Y-74724601D01*
X132712560Y-74700776D01*
X132715000Y-74676000D01*
X132715000Y-70609872D01*
X134365000Y-70609872D01*
X134365000Y-71050128D01*
X134450890Y-71481925D01*
X134619369Y-71888669D01*
X134863962Y-72254729D01*
X135175271Y-72566038D01*
X135541331Y-72810631D01*
X135948075Y-72979110D01*
X136379872Y-73065000D01*
X136820128Y-73065000D01*
X137251925Y-72979110D01*
X137658669Y-72810631D01*
X138024729Y-72566038D01*
X138336038Y-72254729D01*
X138580631Y-71888669D01*
X138749110Y-71481925D01*
X138835000Y-71050128D01*
X138835000Y-70609872D01*
X138749110Y-70178075D01*
X138580631Y-69771331D01*
X138336038Y-69405271D01*
X138024729Y-69093962D01*
X137658669Y-68849369D01*
X137251925Y-68680890D01*
X136820128Y-68595000D01*
X136379872Y-68595000D01*
X135948075Y-68680890D01*
X135541331Y-68849369D01*
X135175271Y-69093962D01*
X134863962Y-69405271D01*
X134619369Y-69771331D01*
X134450890Y-70178075D01*
X134365000Y-70609872D01*
X132715000Y-70609872D01*
X132715000Y-69850000D01*
X132712560Y-69825224D01*
X132705333Y-69801399D01*
X132693597Y-69779443D01*
X132677803Y-69760197D01*
X132658557Y-69744403D01*
X132636601Y-69732667D01*
X132612776Y-69725440D01*
X132588000Y-69723000D01*
X132139558Y-69723000D01*
X132211083Y-69651475D01*
X132095415Y-69535807D01*
X132359814Y-69440044D01*
X132500704Y-69150429D01*
X132582384Y-68838892D01*
X132601718Y-68517405D01*
X132557961Y-68198325D01*
X132452795Y-67893912D01*
X132359814Y-67719956D01*
X132095415Y-67624193D01*
X132159608Y-67560000D01*
X139640001Y-67560000D01*
X139640000Y-99540000D01*
X119499608Y-99540000D01*
X119395415Y-99435807D01*
X119659814Y-99340044D01*
X119800704Y-99050429D01*
X119882384Y-98738892D01*
X119901718Y-98417405D01*
X119857961Y-98098325D01*
X119752795Y-97793912D01*
X119659814Y-97619956D01*
X119395415Y-97524193D01*
X119510608Y-97409000D01*
X119888000Y-97409000D01*
X119912776Y-97406560D01*
X119936601Y-97399333D01*
X119958557Y-97387597D01*
X119977803Y-97371803D01*
X119993597Y-97352557D01*
X120005333Y-97330601D01*
X120012560Y-97306776D01*
X120015000Y-97282000D01*
X120015000Y-92456000D01*
X120012560Y-92431224D01*
X120005333Y-92407399D01*
X119993597Y-92385443D01*
X119977803Y-92366197D01*
X119958557Y-92350403D01*
X119936601Y-92338667D01*
X119912776Y-92331440D01*
X119888000Y-92329000D01*
X110236000Y-92329000D01*
X110211224Y-92331440D01*
X110187399Y-92338667D01*
X110165443Y-92350403D01*
X110146197Y-92366197D01*
X110130403Y-92385443D01*
X110118667Y-92407399D01*
X110111440Y-92431224D01*
X110109000Y-92456000D01*
X110109000Y-97282000D01*
X110111440Y-97306776D01*
X110118667Y-97330601D01*
X110130403Y-97352557D01*
X110146197Y-97371803D01*
X110165443Y-97387597D01*
X110187399Y-97399333D01*
X110211224Y-97406560D01*
X110236000Y-97409000D01*
X110509392Y-97409000D01*
X110624585Y-97524193D01*
X110360186Y-97619956D01*
X110219296Y-97909571D01*
X110137616Y-98221108D01*
X110118282Y-98542595D01*
X110162039Y-98861675D01*
X110267205Y-99166088D01*
X110360186Y-99340044D01*
X110624585Y-99435807D01*
X110520392Y-99540000D01*
X103022000Y-99540000D01*
X103022000Y-96009872D01*
X103885000Y-96009872D01*
X103885000Y-96450128D01*
X103970890Y-96881925D01*
X104139369Y-97288669D01*
X104383962Y-97654729D01*
X104695271Y-97966038D01*
X105061331Y-98210631D01*
X105468075Y-98379110D01*
X105899872Y-98465000D01*
X106340128Y-98465000D01*
X106771925Y-98379110D01*
X107178669Y-98210631D01*
X107544729Y-97966038D01*
X107856038Y-97654729D01*
X108100631Y-97288669D01*
X108269110Y-96881925D01*
X108355000Y-96450128D01*
X108355000Y-96009872D01*
X108269110Y-95578075D01*
X108100631Y-95171331D01*
X107856038Y-94805271D01*
X107544729Y-94493962D01*
X107178669Y-94249369D01*
X106771925Y-94080890D01*
X106340128Y-93995000D01*
X105899872Y-93995000D01*
X105468075Y-94080890D01*
X105061331Y-94249369D01*
X104695271Y-94493962D01*
X104383962Y-94805271D01*
X104139369Y-95171331D01*
X103970890Y-95578075D01*
X103885000Y-96009872D01*
X103022000Y-96009872D01*
X103022000Y-91274000D01*
X104937928Y-91274000D01*
X104950188Y-91398482D01*
X104986498Y-91518180D01*
X105045463Y-91628494D01*
X105124815Y-91725185D01*
X105221506Y-91804537D01*
X105331820Y-91863502D01*
X105451518Y-91899812D01*
X105576000Y-91912072D01*
X106140250Y-91909000D01*
X106299000Y-91750250D01*
X106299000Y-90551000D01*
X106553000Y-90551000D01*
X106553000Y-91750250D01*
X106711750Y-91909000D01*
X107276000Y-91912072D01*
X107400482Y-91899812D01*
X107520180Y-91863502D01*
X107630494Y-91804537D01*
X107727185Y-91725185D01*
X107806537Y-91628494D01*
X107865502Y-91518180D01*
X107901812Y-91398482D01*
X107914072Y-91274000D01*
X107911000Y-90709750D01*
X107752250Y-90551000D01*
X106553000Y-90551000D01*
X106299000Y-90551000D01*
X105099750Y-90551000D01*
X104941000Y-90709750D01*
X104937928Y-91274000D01*
X103022000Y-91274000D01*
X103022000Y-79150000D01*
X104911928Y-79150000D01*
X104911928Y-80850000D01*
X104924188Y-80974482D01*
X104960498Y-81094180D01*
X105019463Y-81204494D01*
X105098815Y-81301185D01*
X105195506Y-81380537D01*
X105305820Y-81439502D01*
X105425518Y-81475812D01*
X105550000Y-81488072D01*
X107250000Y-81488072D01*
X107374482Y-81475812D01*
X107494180Y-81439502D01*
X107604494Y-81380537D01*
X107701185Y-81301185D01*
X107780537Y-81204494D01*
X107839502Y-81094180D01*
X107875812Y-80974482D01*
X107888072Y-80850000D01*
X107888072Y-80260000D01*
X110560392Y-80260000D01*
X110624585Y-80324193D01*
X110360186Y-80419956D01*
X110219296Y-80709571D01*
X110137616Y-81021108D01*
X110118282Y-81342595D01*
X110162039Y-81661675D01*
X110267205Y-81966088D01*
X110360186Y-82140044D01*
X110440132Y-82169000D01*
X110236000Y-82169000D01*
X110211224Y-82171440D01*
X110187399Y-82178667D01*
X110165443Y-82190403D01*
X110146197Y-82206197D01*
X110130403Y-82225443D01*
X110118667Y-82247399D01*
X110111440Y-82271224D01*
X110109000Y-82296000D01*
X110109000Y-86999000D01*
X107620656Y-86999000D01*
X107579475Y-86937368D01*
X107372632Y-86730525D01*
X107129411Y-86568010D01*
X106859158Y-86456068D01*
X106572260Y-86399000D01*
X106279740Y-86399000D01*
X105992842Y-86456068D01*
X105722589Y-86568010D01*
X105479368Y-86730525D01*
X105272525Y-86937368D01*
X105110010Y-87180589D01*
X104998068Y-87450842D01*
X104941000Y-87737740D01*
X104941000Y-88030260D01*
X104998068Y-88317158D01*
X105110010Y-88587411D01*
X105272525Y-88830632D01*
X105404380Y-88962487D01*
X105331820Y-88984498D01*
X105221506Y-89043463D01*
X105124815Y-89122815D01*
X105045463Y-89219506D01*
X104986498Y-89329820D01*
X104950188Y-89449518D01*
X104937928Y-89574000D01*
X104941000Y-90138250D01*
X105099750Y-90297000D01*
X106299000Y-90297000D01*
X106299000Y-90277000D01*
X106553000Y-90277000D01*
X106553000Y-90297000D01*
X107752250Y-90297000D01*
X107911000Y-90138250D01*
X107914072Y-89574000D01*
X107901812Y-89449518D01*
X107865502Y-89329820D01*
X107806537Y-89219506D01*
X107727185Y-89122815D01*
X107630494Y-89043463D01*
X107520180Y-88984498D01*
X107447620Y-88962487D01*
X107579475Y-88830632D01*
X107620656Y-88769000D01*
X110377422Y-88769000D01*
X111865470Y-90257049D01*
X111893183Y-90290817D01*
X111926951Y-90318530D01*
X111926953Y-90318532D01*
X112027941Y-90401411D01*
X112181687Y-90483589D01*
X112348510Y-90534195D01*
X112478523Y-90547000D01*
X112478531Y-90547000D01*
X112522000Y-90551281D01*
X112565469Y-90547000D01*
X119013422Y-90547000D01*
X123321001Y-94854580D01*
X123321001Y-94877478D01*
X123291241Y-94897363D01*
X123091363Y-95097241D01*
X122934320Y-95332273D01*
X122826147Y-95593426D01*
X122771000Y-95870665D01*
X122771000Y-96153335D01*
X122826147Y-96430574D01*
X122934320Y-96691727D01*
X123091363Y-96926759D01*
X123291241Y-97126637D01*
X123526273Y-97283680D01*
X123787426Y-97391853D01*
X124064665Y-97447000D01*
X124347335Y-97447000D01*
X124624574Y-97391853D01*
X124885727Y-97283680D01*
X125120759Y-97126637D01*
X125320637Y-96926759D01*
X125477680Y-96691727D01*
X125585853Y-96430574D01*
X125641000Y-96153335D01*
X125641000Y-95870665D01*
X125585853Y-95593426D01*
X125477680Y-95332273D01*
X125320637Y-95097241D01*
X125120759Y-94897363D01*
X125091000Y-94877479D01*
X125091000Y-94531469D01*
X125095281Y-94488000D01*
X125091000Y-94444531D01*
X125091000Y-94444523D01*
X125078195Y-94314510D01*
X125027589Y-94147686D01*
X124945411Y-93993941D01*
X124862532Y-93892953D01*
X124862530Y-93892951D01*
X124834817Y-93859183D01*
X124801049Y-93831470D01*
X120036534Y-89066956D01*
X120008817Y-89033183D01*
X119874059Y-88922589D01*
X119720313Y-88840411D01*
X119553490Y-88789805D01*
X119423477Y-88777000D01*
X119423469Y-88777000D01*
X119380000Y-88772719D01*
X119336531Y-88777000D01*
X112888579Y-88777000D01*
X111614578Y-87503000D01*
X119888000Y-87503000D01*
X119912776Y-87500560D01*
X119936601Y-87493333D01*
X119958557Y-87481597D01*
X119977803Y-87465803D01*
X119993597Y-87446557D01*
X120005333Y-87424601D01*
X120012560Y-87400776D01*
X120015000Y-87376000D01*
X120015000Y-82296000D01*
X120012560Y-82271224D01*
X120005333Y-82247399D01*
X119993597Y-82225443D01*
X119977803Y-82206197D01*
X119958557Y-82190403D01*
X119936601Y-82178667D01*
X119912776Y-82171440D01*
X119888000Y-82169000D01*
X119579868Y-82169000D01*
X119659814Y-82140044D01*
X119800704Y-81850429D01*
X119882384Y-81538892D01*
X119901718Y-81217405D01*
X119857961Y-80898325D01*
X119752795Y-80593912D01*
X119659814Y-80419956D01*
X119395415Y-80324193D01*
X119459608Y-80260000D01*
X124660503Y-80260000D01*
X129100198Y-84699695D01*
X129021525Y-84778368D01*
X128905000Y-84952760D01*
X128788475Y-84778368D01*
X128581632Y-84571525D01*
X128338411Y-84409010D01*
X128068158Y-84297068D01*
X127781260Y-84240000D01*
X127488740Y-84240000D01*
X127201842Y-84297068D01*
X126931589Y-84409010D01*
X126688368Y-84571525D01*
X126481525Y-84778368D01*
X126365000Y-84952760D01*
X126248475Y-84778368D01*
X126041632Y-84571525D01*
X125798411Y-84409010D01*
X125528158Y-84297068D01*
X125241260Y-84240000D01*
X124948740Y-84240000D01*
X124661842Y-84297068D01*
X124391589Y-84409010D01*
X124148368Y-84571525D01*
X123941525Y-84778368D01*
X123825000Y-84952760D01*
X123708475Y-84778368D01*
X123501632Y-84571525D01*
X123258411Y-84409010D01*
X122988158Y-84297068D01*
X122701260Y-84240000D01*
X122408740Y-84240000D01*
X122121842Y-84297068D01*
X121851589Y-84409010D01*
X121608368Y-84571525D01*
X121401525Y-84778368D01*
X121239010Y-85021589D01*
X121127068Y-85291842D01*
X121070000Y-85578740D01*
X121070000Y-85871260D01*
X121127068Y-86158158D01*
X121239010Y-86428411D01*
X121401525Y-86671632D01*
X121608368Y-86878475D01*
X121782760Y-86995000D01*
X121608368Y-87111525D01*
X121401525Y-87318368D01*
X121239010Y-87561589D01*
X121127068Y-87831842D01*
X121070000Y-88118740D01*
X121070000Y-88411260D01*
X121127068Y-88698158D01*
X121239010Y-88968411D01*
X121401525Y-89211632D01*
X121608368Y-89418475D01*
X121851589Y-89580990D01*
X122121842Y-89692932D01*
X122408740Y-89750000D01*
X122701260Y-89750000D01*
X122988158Y-89692932D01*
X123258411Y-89580990D01*
X123501632Y-89418475D01*
X123626710Y-89293397D01*
X124246208Y-89293397D01*
X124323843Y-89542472D01*
X124587883Y-89668371D01*
X124871411Y-89740339D01*
X125163531Y-89755611D01*
X125453019Y-89713599D01*
X125728747Y-89615919D01*
X125866157Y-89542472D01*
X125943792Y-89293397D01*
X125095000Y-88444605D01*
X124246208Y-89293397D01*
X123626710Y-89293397D01*
X123708475Y-89211632D01*
X123824311Y-89038271D01*
X124066603Y-89113792D01*
X124915395Y-88265000D01*
X124066603Y-87416208D01*
X123824311Y-87491729D01*
X123708475Y-87318368D01*
X123501632Y-87111525D01*
X123327240Y-86995000D01*
X123501632Y-86878475D01*
X123708475Y-86671632D01*
X123825000Y-86497240D01*
X123941525Y-86671632D01*
X124148368Y-86878475D01*
X124321729Y-86994311D01*
X124246208Y-87236603D01*
X125095000Y-88085395D01*
X125943792Y-87236603D01*
X125868271Y-86994311D01*
X126041632Y-86878475D01*
X126248475Y-86671632D01*
X126365000Y-86497240D01*
X126481525Y-86671632D01*
X126688368Y-86878475D01*
X126862760Y-86995000D01*
X126688368Y-87111525D01*
X126481525Y-87318368D01*
X126365689Y-87491729D01*
X126123397Y-87416208D01*
X125274605Y-88265000D01*
X126123397Y-89113792D01*
X126365689Y-89038271D01*
X126481525Y-89211632D01*
X126688368Y-89418475D01*
X126931589Y-89580990D01*
X127201842Y-89692932D01*
X127488740Y-89750000D01*
X127781260Y-89750000D01*
X128068158Y-89692932D01*
X128338411Y-89580990D01*
X128581632Y-89418475D01*
X128788475Y-89211632D01*
X128905000Y-89037240D01*
X129021525Y-89211632D01*
X129228368Y-89418475D01*
X129471589Y-89580990D01*
X129741842Y-89692932D01*
X130028740Y-89750000D01*
X130321260Y-89750000D01*
X130608158Y-89692932D01*
X130878411Y-89580990D01*
X131121632Y-89418475D01*
X131253487Y-89286620D01*
X131275498Y-89359180D01*
X131334463Y-89469494D01*
X131413815Y-89566185D01*
X131510506Y-89645537D01*
X131620820Y-89704502D01*
X131740518Y-89740812D01*
X131865000Y-89753072D01*
X133150350Y-89753072D01*
X133072458Y-89830964D01*
X133072453Y-89830968D01*
X131230951Y-91672471D01*
X131197184Y-91700183D01*
X131169471Y-91733951D01*
X131169468Y-91733954D01*
X131086590Y-91834941D01*
X131004412Y-91988687D01*
X130953805Y-92155510D01*
X130936719Y-92329000D01*
X130941001Y-92372479D01*
X130941000Y-94877479D01*
X130911241Y-94897363D01*
X130711363Y-95097241D01*
X130554320Y-95332273D01*
X130446147Y-95593426D01*
X130391000Y-95870665D01*
X130391000Y-96153335D01*
X130446147Y-96430574D01*
X130554320Y-96691727D01*
X130711363Y-96926759D01*
X130911241Y-97126637D01*
X131146273Y-97283680D01*
X131407426Y-97391853D01*
X131684665Y-97447000D01*
X131967335Y-97447000D01*
X132244574Y-97391853D01*
X132505727Y-97283680D01*
X132740759Y-97126637D01*
X132940637Y-96926759D01*
X133097680Y-96691727D01*
X133205853Y-96430574D01*
X133261000Y-96153335D01*
X133261000Y-96009872D01*
X134365000Y-96009872D01*
X134365000Y-96450128D01*
X134450890Y-96881925D01*
X134619369Y-97288669D01*
X134863962Y-97654729D01*
X135175271Y-97966038D01*
X135541331Y-98210631D01*
X135948075Y-98379110D01*
X136379872Y-98465000D01*
X136820128Y-98465000D01*
X137251925Y-98379110D01*
X137658669Y-98210631D01*
X138024729Y-97966038D01*
X138336038Y-97654729D01*
X138580631Y-97288669D01*
X138749110Y-96881925D01*
X138835000Y-96450128D01*
X138835000Y-96009872D01*
X138749110Y-95578075D01*
X138580631Y-95171331D01*
X138336038Y-94805271D01*
X138024729Y-94493962D01*
X137658669Y-94249369D01*
X137251925Y-94080890D01*
X136820128Y-93995000D01*
X136379872Y-93995000D01*
X135948075Y-94080890D01*
X135541331Y-94249369D01*
X135175271Y-94493962D01*
X134863962Y-94805271D01*
X134619369Y-95171331D01*
X134450890Y-95578075D01*
X134365000Y-96009872D01*
X133261000Y-96009872D01*
X133261000Y-95870665D01*
X133205853Y-95593426D01*
X133097680Y-95332273D01*
X132940637Y-95097241D01*
X132740759Y-94897363D01*
X132711000Y-94877479D01*
X132711000Y-92695578D01*
X134324032Y-91082547D01*
X134324036Y-91082542D01*
X135850050Y-89556529D01*
X135883817Y-89528817D01*
X135916897Y-89488510D01*
X135994410Y-89394060D01*
X135994411Y-89394059D01*
X136076589Y-89240313D01*
X136127195Y-89073490D01*
X136140000Y-88943477D01*
X136140000Y-88943467D01*
X136144281Y-88900001D01*
X136140000Y-88856534D01*
X136140000Y-86403469D01*
X136144281Y-86360000D01*
X136140000Y-86316531D01*
X136140000Y-86316523D01*
X136127195Y-86186510D01*
X136090430Y-86065313D01*
X136076589Y-86019686D01*
X135994411Y-85865941D01*
X135911532Y-85764953D01*
X135911530Y-85764951D01*
X135883817Y-85731183D01*
X135850049Y-85703470D01*
X135276534Y-85129956D01*
X135248817Y-85096183D01*
X135114059Y-84985589D01*
X134960313Y-84903411D01*
X134793490Y-84852805D01*
X134663477Y-84840000D01*
X134663469Y-84840000D01*
X134620000Y-84835719D01*
X134576531Y-84840000D01*
X133909656Y-84840000D01*
X133868475Y-84778368D01*
X133661632Y-84571525D01*
X133600000Y-84530344D01*
X133600000Y-84244465D01*
X133604281Y-84200999D01*
X133600000Y-84157533D01*
X133600000Y-84157523D01*
X133587195Y-84027510D01*
X133536589Y-83860687D01*
X133454411Y-83706941D01*
X133430210Y-83677452D01*
X133371532Y-83605953D01*
X133371530Y-83605951D01*
X133343817Y-83572183D01*
X133310049Y-83544470D01*
X127466037Y-77700459D01*
X127466032Y-77700453D01*
X126640534Y-76874956D01*
X126612817Y-76841183D01*
X126478059Y-76730589D01*
X126324313Y-76648411D01*
X126157490Y-76597805D01*
X126027477Y-76585000D01*
X126027469Y-76585000D01*
X125984000Y-76580719D01*
X125940531Y-76585000D01*
X119879521Y-76585000D01*
X119859637Y-76555241D01*
X119659759Y-76355363D01*
X119424727Y-76198320D01*
X119163574Y-76090147D01*
X118886335Y-76035000D01*
X118603665Y-76035000D01*
X118326426Y-76090147D01*
X118065273Y-76198320D01*
X117830241Y-76355363D01*
X117630363Y-76555241D01*
X117473320Y-76790273D01*
X117365147Y-77051426D01*
X117310000Y-77328665D01*
X117310000Y-77611335D01*
X117365147Y-77888574D01*
X117473320Y-78149727D01*
X117630363Y-78384759D01*
X117735604Y-78490000D01*
X112134396Y-78490000D01*
X112239637Y-78384759D01*
X112396680Y-78149727D01*
X112504853Y-77888574D01*
X112560000Y-77611335D01*
X112560000Y-77328665D01*
X112504853Y-77051426D01*
X112396680Y-76790273D01*
X112239637Y-76555241D01*
X112039759Y-76355363D01*
X111804727Y-76198320D01*
X111543574Y-76090147D01*
X111266335Y-76035000D01*
X110983665Y-76035000D01*
X110706426Y-76090147D01*
X110445273Y-76198320D01*
X110210241Y-76355363D01*
X110010363Y-76555241D01*
X109853320Y-76790273D01*
X109745147Y-77051426D01*
X109690000Y-77328665D01*
X109690000Y-77611335D01*
X109745147Y-77888574D01*
X109853320Y-78149727D01*
X110010363Y-78384759D01*
X110115604Y-78490000D01*
X107470107Y-78490000D01*
X107553475Y-78406632D01*
X107715990Y-78163411D01*
X107827932Y-77893158D01*
X107885000Y-77606260D01*
X107885000Y-77313740D01*
X107827932Y-77026842D01*
X107715990Y-76756589D01*
X107553475Y-76513368D01*
X107346632Y-76306525D01*
X107103411Y-76144010D01*
X106833158Y-76032068D01*
X106546260Y-75975000D01*
X106253740Y-75975000D01*
X105966842Y-76032068D01*
X105696589Y-76144010D01*
X105453368Y-76306525D01*
X105246525Y-76513368D01*
X105084010Y-76756589D01*
X104972068Y-77026842D01*
X104915000Y-77313740D01*
X104915000Y-77606260D01*
X104972068Y-77893158D01*
X105084010Y-78163411D01*
X105246525Y-78406632D01*
X105378380Y-78538487D01*
X105305820Y-78560498D01*
X105195506Y-78619463D01*
X105098815Y-78698815D01*
X105019463Y-78795506D01*
X104960498Y-78905820D01*
X104924188Y-79025518D01*
X104911928Y-79150000D01*
X103022000Y-79150000D01*
X103022000Y-70609872D01*
X103885000Y-70609872D01*
X103885000Y-71050128D01*
X103970890Y-71481925D01*
X104139369Y-71888669D01*
X104383962Y-72254729D01*
X104695271Y-72566038D01*
X105061331Y-72810631D01*
X105468075Y-72979110D01*
X105899872Y-73065000D01*
X106340128Y-73065000D01*
X106771925Y-72979110D01*
X107178669Y-72810631D01*
X107544729Y-72566038D01*
X107856038Y-72254729D01*
X108100631Y-71888669D01*
X108269110Y-71481925D01*
X108355000Y-71050128D01*
X108355000Y-70609872D01*
X108269110Y-70178075D01*
X108100631Y-69771331D01*
X107856038Y-69405271D01*
X107544729Y-69093962D01*
X107178669Y-68849369D01*
X106771925Y-68680890D01*
X106340128Y-68595000D01*
X105899872Y-68595000D01*
X105468075Y-68680890D01*
X105061331Y-68849369D01*
X104695271Y-69093962D01*
X104383962Y-69405271D01*
X104139369Y-69771331D01*
X103970890Y-70178075D01*
X103885000Y-70609872D01*
X103022000Y-70609872D01*
X103022000Y-67560000D01*
X110560392Y-67560000D01*
X110624585Y-67624193D01*
G37*
%TD.AperFunction*%
D17*
X111953748Y-81265858D02*
X111939605Y-81280000D01*
X111953748Y-81294143D01*
X111774143Y-81473748D01*
X111760000Y-81459605D01*
X111745858Y-81473748D01*
X111566253Y-81294143D01*
X111580395Y-81280000D01*
X111566253Y-81265858D01*
X111745858Y-81086253D01*
X111760000Y-81100395D01*
X111774143Y-81086253D01*
X111953748Y-81265858D01*
%TA.AperFunction,Conductor*%
D18*
G36*
X111953748Y-81265858D02*
G01*
X111939605Y-81280000D01*
X111953748Y-81294143D01*
X111774143Y-81473748D01*
X111760000Y-81459605D01*
X111745858Y-81473748D01*
X111566253Y-81294143D01*
X111580395Y-81280000D01*
X111566253Y-81265858D01*
X111745858Y-81086253D01*
X111760000Y-81100395D01*
X111774143Y-81086253D01*
X111953748Y-81265858D01*
G37*
%TD.AperFunction*%
D17*
X118453748Y-81265858D02*
X118439605Y-81280000D01*
X118453748Y-81294143D01*
X118274143Y-81473748D01*
X118260000Y-81459605D01*
X118245858Y-81473748D01*
X118066253Y-81294143D01*
X118080395Y-81280000D01*
X118066253Y-81265858D01*
X118245858Y-81086253D01*
X118260000Y-81100395D01*
X118274143Y-81086253D01*
X118453748Y-81265858D01*
%TA.AperFunction,Conductor*%
D18*
G36*
X118453748Y-81265858D02*
G01*
X118439605Y-81280000D01*
X118453748Y-81294143D01*
X118274143Y-81473748D01*
X118260000Y-81459605D01*
X118245858Y-81473748D01*
X118066253Y-81294143D01*
X118080395Y-81280000D01*
X118066253Y-81265858D01*
X118245858Y-81086253D01*
X118260000Y-81100395D01*
X118274143Y-81086253D01*
X118453748Y-81265858D01*
G37*
%TD.AperFunction*%
D17*
X111953748Y-98465858D02*
X111939605Y-98480000D01*
X111953748Y-98494143D01*
X111774143Y-98673748D01*
X111760000Y-98659605D01*
X111745858Y-98673748D01*
X111566253Y-98494143D01*
X111580395Y-98480000D01*
X111566253Y-98465858D01*
X111745858Y-98286253D01*
X111760000Y-98300395D01*
X111774143Y-98286253D01*
X111953748Y-98465858D01*
%TA.AperFunction,Conductor*%
D18*
G36*
X111953748Y-98465858D02*
G01*
X111939605Y-98480000D01*
X111953748Y-98494143D01*
X111774143Y-98673748D01*
X111760000Y-98659605D01*
X111745858Y-98673748D01*
X111566253Y-98494143D01*
X111580395Y-98480000D01*
X111566253Y-98465858D01*
X111745858Y-98286253D01*
X111760000Y-98300395D01*
X111774143Y-98286253D01*
X111953748Y-98465858D01*
G37*
%TD.AperFunction*%
D17*
X118453748Y-98465858D02*
X118439605Y-98480000D01*
X118453748Y-98494143D01*
X118274143Y-98673748D01*
X118260000Y-98659605D01*
X118245858Y-98673748D01*
X118066253Y-98494143D01*
X118080395Y-98480000D01*
X118066253Y-98465858D01*
X118245858Y-98286253D01*
X118260000Y-98300395D01*
X118274143Y-98286253D01*
X118453748Y-98465858D01*
%TA.AperFunction,Conductor*%
D18*
G36*
X118453748Y-98465858D02*
G01*
X118439605Y-98480000D01*
X118453748Y-98494143D01*
X118274143Y-98673748D01*
X118260000Y-98659605D01*
X118245858Y-98673748D01*
X118066253Y-98494143D01*
X118080395Y-98480000D01*
X118066253Y-98465858D01*
X118245858Y-98286253D01*
X118260000Y-98300395D01*
X118274143Y-98286253D01*
X118453748Y-98465858D01*
G37*
%TD.AperFunction*%
D17*
X118453748Y-68565858D02*
X118439605Y-68580000D01*
X118453748Y-68594143D01*
X118274143Y-68773748D01*
X118260000Y-68759605D01*
X118245858Y-68773748D01*
X118066253Y-68594143D01*
X118080395Y-68580000D01*
X118066253Y-68565858D01*
X118245858Y-68386253D01*
X118260000Y-68400395D01*
X118274143Y-68386253D01*
X118453748Y-68565858D01*
%TA.AperFunction,Conductor*%
D18*
G36*
X118453748Y-68565858D02*
G01*
X118439605Y-68580000D01*
X118453748Y-68594143D01*
X118274143Y-68773748D01*
X118260000Y-68759605D01*
X118245858Y-68773748D01*
X118066253Y-68594143D01*
X118080395Y-68580000D01*
X118066253Y-68565858D01*
X118245858Y-68386253D01*
X118260000Y-68400395D01*
X118274143Y-68386253D01*
X118453748Y-68565858D01*
G37*
%TD.AperFunction*%
D17*
X131153748Y-68565858D02*
X131139605Y-68580000D01*
X131153748Y-68594143D01*
X130974143Y-68773748D01*
X130960000Y-68759605D01*
X130945858Y-68773748D01*
X130766253Y-68594143D01*
X130780395Y-68580000D01*
X130766253Y-68565858D01*
X130945858Y-68386253D01*
X130960000Y-68400395D01*
X130974143Y-68386253D01*
X131153748Y-68565858D01*
%TA.AperFunction,Conductor*%
D18*
G36*
X131153748Y-68565858D02*
G01*
X131139605Y-68580000D01*
X131153748Y-68594143D01*
X130974143Y-68773748D01*
X130960000Y-68759605D01*
X130945858Y-68773748D01*
X130766253Y-68594143D01*
X130780395Y-68580000D01*
X130766253Y-68565858D01*
X130945858Y-68386253D01*
X130960000Y-68400395D01*
X130974143Y-68386253D01*
X131153748Y-68565858D01*
G37*
%TD.AperFunction*%
D17*
X124653748Y-68565858D02*
X124639605Y-68580000D01*
X124653748Y-68594143D01*
X124474143Y-68773748D01*
X124460000Y-68759605D01*
X124445858Y-68773748D01*
X124266253Y-68594143D01*
X124280395Y-68580000D01*
X124266253Y-68565858D01*
X124445858Y-68386253D01*
X124460000Y-68400395D01*
X124474143Y-68386253D01*
X124653748Y-68565858D01*
%TA.AperFunction,Conductor*%
D18*
G36*
X124653748Y-68565858D02*
G01*
X124639605Y-68580000D01*
X124653748Y-68594143D01*
X124474143Y-68773748D01*
X124460000Y-68759605D01*
X124445858Y-68773748D01*
X124266253Y-68594143D01*
X124280395Y-68580000D01*
X124266253Y-68565858D01*
X124445858Y-68386253D01*
X124460000Y-68400395D01*
X124474143Y-68386253D01*
X124653748Y-68565858D01*
G37*
%TD.AperFunction*%
D17*
X111953748Y-68565858D02*
X111939605Y-68580000D01*
X111953748Y-68594143D01*
X111774143Y-68773748D01*
X111760000Y-68759605D01*
X111745858Y-68773748D01*
X111566253Y-68594143D01*
X111580395Y-68580000D01*
X111566253Y-68565858D01*
X111745858Y-68386253D01*
X111760000Y-68400395D01*
X111774143Y-68386253D01*
X111953748Y-68565858D01*
%TA.AperFunction,Conductor*%
D18*
G36*
X111953748Y-68565858D02*
G01*
X111939605Y-68580000D01*
X111953748Y-68594143D01*
X111774143Y-68773748D01*
X111760000Y-68759605D01*
X111745858Y-68773748D01*
X111566253Y-68594143D01*
X111580395Y-68580000D01*
X111566253Y-68565858D01*
X111745858Y-68386253D01*
X111760000Y-68400395D01*
X111774143Y-68386253D01*
X111953748Y-68565858D01*
G37*
%TD.AperFunction*%
%TD*%
M02*
