M48
; DRILL file {KiCad 5.1.8-5.1.8} date Wed Jun 15 01:07:28 2022
; FORMAT={-:-/ absolute / metric / decimal}
; #@! TF.CreationDate,2022-06-15T01:07:28+02:00
; #@! TF.GenerationSoftware,Kicad,Pcbnew,5.1.8-5.1.8
; #@! TF.FileFunction,Plated,1,2,PTH
FMAT,2
METRIC
T1C0.800
T2C1.000
T3C1.100
%
G90
G05
T1
X111.125Y-77.47
X118.745Y-77.47
X124.206Y-96.012
X131.826Y-96.012
T2
X106.4Y-77.46
X106.4Y-80.0
X106.426Y-87.884
X106.426Y-90.424
X122.555Y-85.725
X122.555Y-88.265
X125.095Y-85.725
X125.095Y-88.265
X127.635Y-85.725
X127.635Y-88.265
X130.175Y-85.725
X130.175Y-88.265
X132.715Y-85.725
X132.715Y-88.265
T3
X111.76Y-93.98
X111.76Y-98.48
X118.26Y-93.98
X118.26Y-98.48
X124.46Y-68.58
X124.46Y-73.08
X130.96Y-68.58
X130.96Y-73.08
X111.76Y-68.58
X111.76Y-73.08
X118.26Y-68.58
X118.26Y-73.08
X111.76Y-81.28
X111.76Y-85.78
X118.26Y-81.28
X118.26Y-85.78
T0
M30
