%TF.GenerationSoftware,KiCad,Pcbnew,5.1.8-5.1.8*%
%TF.CreationDate,2022-05-17T18:34:16+02:00*%
%TF.ProjectId,FloppyEmuButtonPanel,466c6f70-7079-4456-9d75-427574746f6e,1.0*%
%TF.SameCoordinates,Original*%
%TF.FileFunction,Legend,Top*%
%TF.FilePolarity,Positive*%
%FSLAX46Y46*%
G04 Gerber Fmt 4.6, Leading zero omitted, Abs format (unit mm)*
G04 Created by KiCad (PCBNEW 5.1.8-5.1.8) date 2022-05-17 18:34:16*
%MOMM*%
%LPD*%
G01*
G04 APERTURE LIST*
%ADD10C,0.150000*%
%ADD11C,0.120000*%
G04 APERTURE END LIST*
D10*
X120683928Y-93273571D02*
X120350595Y-93273571D01*
X120350595Y-93797380D02*
X120350595Y-92797380D01*
X120826785Y-92797380D01*
X121350595Y-93797380D02*
X121255357Y-93749761D01*
X121207738Y-93654523D01*
X121207738Y-92797380D01*
X121874404Y-93797380D02*
X121779166Y-93749761D01*
X121731547Y-93702142D01*
X121683928Y-93606904D01*
X121683928Y-93321190D01*
X121731547Y-93225952D01*
X121779166Y-93178333D01*
X121874404Y-93130714D01*
X122017261Y-93130714D01*
X122112500Y-93178333D01*
X122160119Y-93225952D01*
X122207738Y-93321190D01*
X122207738Y-93606904D01*
X122160119Y-93702142D01*
X122112500Y-93749761D01*
X122017261Y-93797380D01*
X121874404Y-93797380D01*
X122636309Y-93130714D02*
X122636309Y-94130714D01*
X122636309Y-93178333D02*
X122731547Y-93130714D01*
X122922023Y-93130714D01*
X123017261Y-93178333D01*
X123064880Y-93225952D01*
X123112500Y-93321190D01*
X123112500Y-93606904D01*
X123064880Y-93702142D01*
X123017261Y-93749761D01*
X122922023Y-93797380D01*
X122731547Y-93797380D01*
X122636309Y-93749761D01*
X123541071Y-93130714D02*
X123541071Y-94130714D01*
X123541071Y-93178333D02*
X123636309Y-93130714D01*
X123826785Y-93130714D01*
X123922023Y-93178333D01*
X123969642Y-93225952D01*
X124017261Y-93321190D01*
X124017261Y-93606904D01*
X123969642Y-93702142D01*
X123922023Y-93749761D01*
X123826785Y-93797380D01*
X123636309Y-93797380D01*
X123541071Y-93749761D01*
X124350595Y-93130714D02*
X124588690Y-93797380D01*
X124826785Y-93130714D02*
X124588690Y-93797380D01*
X124493452Y-94035476D01*
X124445833Y-94083095D01*
X124350595Y-94130714D01*
X125207738Y-93273571D02*
X125541071Y-93273571D01*
X125683928Y-93797380D02*
X125207738Y-93797380D01*
X125207738Y-92797380D01*
X125683928Y-92797380D01*
X126112500Y-93797380D02*
X126112500Y-93130714D01*
X126112500Y-93225952D02*
X126160119Y-93178333D01*
X126255357Y-93130714D01*
X126398214Y-93130714D01*
X126493452Y-93178333D01*
X126541071Y-93273571D01*
X126541071Y-93797380D01*
X126541071Y-93273571D02*
X126588690Y-93178333D01*
X126683928Y-93130714D01*
X126826785Y-93130714D01*
X126922023Y-93178333D01*
X126969642Y-93273571D01*
X126969642Y-93797380D01*
X127874404Y-93130714D02*
X127874404Y-93797380D01*
X127445833Y-93130714D02*
X127445833Y-93654523D01*
X127493452Y-93749761D01*
X127588690Y-93797380D01*
X127731547Y-93797380D01*
X127826785Y-93749761D01*
X127874404Y-93702142D01*
X129445833Y-93273571D02*
X129588690Y-93321190D01*
X129636309Y-93368809D01*
X129683928Y-93464047D01*
X129683928Y-93606904D01*
X129636309Y-93702142D01*
X129588690Y-93749761D01*
X129493452Y-93797380D01*
X129112500Y-93797380D01*
X129112500Y-92797380D01*
X129445833Y-92797380D01*
X129541071Y-92845000D01*
X129588690Y-92892619D01*
X129636309Y-92987857D01*
X129636309Y-93083095D01*
X129588690Y-93178333D01*
X129541071Y-93225952D01*
X129445833Y-93273571D01*
X129112500Y-93273571D01*
X130541071Y-93130714D02*
X130541071Y-93797380D01*
X130112500Y-93130714D02*
X130112500Y-93654523D01*
X130160119Y-93749761D01*
X130255357Y-93797380D01*
X130398214Y-93797380D01*
X130493452Y-93749761D01*
X130541071Y-93702142D01*
X130874404Y-93130714D02*
X131255357Y-93130714D01*
X131017261Y-92797380D02*
X131017261Y-93654523D01*
X131064880Y-93749761D01*
X131160119Y-93797380D01*
X131255357Y-93797380D01*
X131445833Y-93130714D02*
X131826785Y-93130714D01*
X131588690Y-92797380D02*
X131588690Y-93654523D01*
X131636309Y-93749761D01*
X131731547Y-93797380D01*
X131826785Y-93797380D01*
X132302976Y-93797380D02*
X132207738Y-93749761D01*
X132160119Y-93702142D01*
X132112500Y-93606904D01*
X132112500Y-93321190D01*
X132160119Y-93225952D01*
X132207738Y-93178333D01*
X132302976Y-93130714D01*
X132445833Y-93130714D01*
X132541071Y-93178333D01*
X132588690Y-93225952D01*
X132636309Y-93321190D01*
X132636309Y-93606904D01*
X132588690Y-93702142D01*
X132541071Y-93749761D01*
X132445833Y-93797380D01*
X132302976Y-93797380D01*
X133064880Y-93130714D02*
X133064880Y-93797380D01*
X133064880Y-93225952D02*
X133112500Y-93178333D01*
X133207738Y-93130714D01*
X133350595Y-93130714D01*
X133445833Y-93178333D01*
X133493452Y-93273571D01*
X133493452Y-93797380D01*
X134731547Y-93797380D02*
X134731547Y-92797380D01*
X135112500Y-92797380D01*
X135207738Y-92845000D01*
X135255357Y-92892619D01*
X135302976Y-92987857D01*
X135302976Y-93130714D01*
X135255357Y-93225952D01*
X135207738Y-93273571D01*
X135112500Y-93321190D01*
X134731547Y-93321190D01*
X136160119Y-93797380D02*
X136160119Y-93273571D01*
X136112500Y-93178333D01*
X136017261Y-93130714D01*
X135826785Y-93130714D01*
X135731547Y-93178333D01*
X136160119Y-93749761D02*
X136064880Y-93797380D01*
X135826785Y-93797380D01*
X135731547Y-93749761D01*
X135683928Y-93654523D01*
X135683928Y-93559285D01*
X135731547Y-93464047D01*
X135826785Y-93416428D01*
X136064880Y-93416428D01*
X136160119Y-93368809D01*
X136636309Y-93130714D02*
X136636309Y-93797380D01*
X136636309Y-93225952D02*
X136683928Y-93178333D01*
X136779166Y-93130714D01*
X136922023Y-93130714D01*
X137017261Y-93178333D01*
X137064880Y-93273571D01*
X137064880Y-93797380D01*
X137922023Y-93749761D02*
X137826785Y-93797380D01*
X137636309Y-93797380D01*
X137541071Y-93749761D01*
X137493452Y-93654523D01*
X137493452Y-93273571D01*
X137541071Y-93178333D01*
X137636309Y-93130714D01*
X137826785Y-93130714D01*
X137922023Y-93178333D01*
X137969642Y-93273571D01*
X137969642Y-93368809D01*
X137493452Y-93464047D01*
X138541071Y-93797380D02*
X138445833Y-93749761D01*
X138398214Y-93654523D01*
X138398214Y-92797380D01*
X120128357Y-97258714D02*
X120366452Y-97925380D01*
X120604547Y-97258714D01*
X121509309Y-97925380D02*
X120937880Y-97925380D01*
X121223595Y-97925380D02*
X121223595Y-96925380D01*
X121128357Y-97068238D01*
X121033119Y-97163476D01*
X120937880Y-97211095D01*
X121937880Y-97830142D02*
X121985500Y-97877761D01*
X121937880Y-97925380D01*
X121890261Y-97877761D01*
X121937880Y-97830142D01*
X121937880Y-97925380D01*
X122604547Y-96925380D02*
X122699785Y-96925380D01*
X122795023Y-96973000D01*
X122842642Y-97020619D01*
X122890261Y-97115857D01*
X122937880Y-97306333D01*
X122937880Y-97544428D01*
X122890261Y-97734904D01*
X122842642Y-97830142D01*
X122795023Y-97877761D01*
X122699785Y-97925380D01*
X122604547Y-97925380D01*
X122509309Y-97877761D01*
X122461690Y-97830142D01*
X122414071Y-97734904D01*
X122366452Y-97544428D01*
X122366452Y-97306333D01*
X122414071Y-97115857D01*
X122461690Y-97020619D01*
X122509309Y-96973000D01*
X122604547Y-96925380D01*
X120414071Y-98575380D02*
X120509309Y-98575380D01*
X120604547Y-98623000D01*
X120652166Y-98670619D01*
X120699785Y-98765857D01*
X120747404Y-98956333D01*
X120747404Y-99194428D01*
X120699785Y-99384904D01*
X120652166Y-99480142D01*
X120604547Y-99527761D01*
X120509309Y-99575380D01*
X120414071Y-99575380D01*
X120318833Y-99527761D01*
X120271214Y-99480142D01*
X120223595Y-99384904D01*
X120175976Y-99194428D01*
X120175976Y-98956333D01*
X120223595Y-98765857D01*
X120271214Y-98670619D01*
X120318833Y-98623000D01*
X120414071Y-98575380D01*
X121652166Y-98575380D02*
X121175976Y-98575380D01*
X121128357Y-99051571D01*
X121175976Y-99003952D01*
X121271214Y-98956333D01*
X121509309Y-98956333D01*
X121604547Y-99003952D01*
X121652166Y-99051571D01*
X121699785Y-99146809D01*
X121699785Y-99384904D01*
X121652166Y-99480142D01*
X121604547Y-99527761D01*
X121509309Y-99575380D01*
X121271214Y-99575380D01*
X121175976Y-99527761D01*
X121128357Y-99480142D01*
X122842642Y-98527761D02*
X121985500Y-99813476D01*
X123128357Y-98670619D02*
X123175976Y-98623000D01*
X123271214Y-98575380D01*
X123509309Y-98575380D01*
X123604547Y-98623000D01*
X123652166Y-98670619D01*
X123699785Y-98765857D01*
X123699785Y-98861095D01*
X123652166Y-99003952D01*
X123080738Y-99575380D01*
X123699785Y-99575380D01*
X124318833Y-98575380D02*
X124414071Y-98575380D01*
X124509309Y-98623000D01*
X124556928Y-98670619D01*
X124604547Y-98765857D01*
X124652166Y-98956333D01*
X124652166Y-99194428D01*
X124604547Y-99384904D01*
X124556928Y-99480142D01*
X124509309Y-99527761D01*
X124414071Y-99575380D01*
X124318833Y-99575380D01*
X124223595Y-99527761D01*
X124175976Y-99480142D01*
X124128357Y-99384904D01*
X124080738Y-99194428D01*
X124080738Y-98956333D01*
X124128357Y-98765857D01*
X124175976Y-98670619D01*
X124223595Y-98623000D01*
X124318833Y-98575380D01*
X125033119Y-98670619D02*
X125080738Y-98623000D01*
X125175976Y-98575380D01*
X125414071Y-98575380D01*
X125509309Y-98623000D01*
X125556928Y-98670619D01*
X125604547Y-98765857D01*
X125604547Y-98861095D01*
X125556928Y-99003952D01*
X124985500Y-99575380D01*
X125604547Y-99575380D01*
X125985500Y-98670619D02*
X126033119Y-98623000D01*
X126128357Y-98575380D01*
X126366452Y-98575380D01*
X126461690Y-98623000D01*
X126509309Y-98670619D01*
X126556928Y-98765857D01*
X126556928Y-98861095D01*
X126509309Y-99003952D01*
X125937880Y-99575380D01*
X126556928Y-99575380D01*
D11*
%TO.C,SW1*%
X118510000Y-71580000D02*
X118510000Y-70080000D01*
X117260000Y-67580000D02*
X112760000Y-67580000D01*
X111510000Y-70080000D02*
X111510000Y-71580000D01*
X112760000Y-74080000D02*
X117260000Y-74080000D01*
%TO.C,SW2*%
X112760000Y-86780000D02*
X117260000Y-86780000D01*
X111510000Y-82780000D02*
X111510000Y-84280000D01*
X117260000Y-80280000D02*
X112760000Y-80280000D01*
X118510000Y-84280000D02*
X118510000Y-82780000D01*
%TO.C,SW3*%
X118510000Y-96980000D02*
X118510000Y-95480000D01*
X117260000Y-92980000D02*
X112760000Y-92980000D01*
X111510000Y-95480000D02*
X111510000Y-96980000D01*
X112760000Y-99480000D02*
X117260000Y-99480000D01*
%TO.C,SW4*%
X125460000Y-74080000D02*
X129960000Y-74080000D01*
X124210000Y-70080000D02*
X124210000Y-71580000D01*
X129960000Y-67580000D02*
X125460000Y-67580000D01*
X131210000Y-71580000D02*
X131210000Y-70080000D01*
%TO.C,SW1*%
D10*
X107396666Y-69274761D02*
X107539523Y-69322380D01*
X107777619Y-69322380D01*
X107872857Y-69274761D01*
X107920476Y-69227142D01*
X107968095Y-69131904D01*
X107968095Y-69036666D01*
X107920476Y-68941428D01*
X107872857Y-68893809D01*
X107777619Y-68846190D01*
X107587142Y-68798571D01*
X107491904Y-68750952D01*
X107444285Y-68703333D01*
X107396666Y-68608095D01*
X107396666Y-68512857D01*
X107444285Y-68417619D01*
X107491904Y-68370000D01*
X107587142Y-68322380D01*
X107825238Y-68322380D01*
X107968095Y-68370000D01*
X108301428Y-68322380D02*
X108539523Y-69322380D01*
X108730000Y-68608095D01*
X108920476Y-69322380D01*
X109158571Y-68322380D01*
X110063333Y-69322380D02*
X109491904Y-69322380D01*
X109777619Y-69322380D02*
X109777619Y-68322380D01*
X109682380Y-68465238D01*
X109587142Y-68560476D01*
X109491904Y-68608095D01*
X110557619Y-75732380D02*
X110557619Y-74732380D01*
X110938571Y-74732380D01*
X111033809Y-74780000D01*
X111081428Y-74827619D01*
X111129047Y-74922857D01*
X111129047Y-75065714D01*
X111081428Y-75160952D01*
X111033809Y-75208571D01*
X110938571Y-75256190D01*
X110557619Y-75256190D01*
X112129047Y-75732380D02*
X111795714Y-75256190D01*
X111557619Y-75732380D02*
X111557619Y-74732380D01*
X111938571Y-74732380D01*
X112033809Y-74780000D01*
X112081428Y-74827619D01*
X112129047Y-74922857D01*
X112129047Y-75065714D01*
X112081428Y-75160952D01*
X112033809Y-75208571D01*
X111938571Y-75256190D01*
X111557619Y-75256190D01*
X112557619Y-75208571D02*
X112890952Y-75208571D01*
X113033809Y-75732380D02*
X112557619Y-75732380D01*
X112557619Y-74732380D01*
X113033809Y-74732380D01*
X113319523Y-74732380D02*
X113652857Y-75732380D01*
X113986190Y-74732380D01*
X114319523Y-75732380D02*
X114319523Y-74732380D01*
X114986190Y-74732380D02*
X115176666Y-74732380D01*
X115271904Y-74780000D01*
X115367142Y-74875238D01*
X115414761Y-75065714D01*
X115414761Y-75399047D01*
X115367142Y-75589523D01*
X115271904Y-75684761D01*
X115176666Y-75732380D01*
X114986190Y-75732380D01*
X114890952Y-75684761D01*
X114795714Y-75589523D01*
X114748095Y-75399047D01*
X114748095Y-75065714D01*
X114795714Y-74875238D01*
X114890952Y-74780000D01*
X114986190Y-74732380D01*
X115843333Y-74732380D02*
X115843333Y-75541904D01*
X115890952Y-75637142D01*
X115938571Y-75684761D01*
X116033809Y-75732380D01*
X116224285Y-75732380D01*
X116319523Y-75684761D01*
X116367142Y-75637142D01*
X116414761Y-75541904D01*
X116414761Y-74732380D01*
X116843333Y-75684761D02*
X116986190Y-75732380D01*
X117224285Y-75732380D01*
X117319523Y-75684761D01*
X117367142Y-75637142D01*
X117414761Y-75541904D01*
X117414761Y-75446666D01*
X117367142Y-75351428D01*
X117319523Y-75303809D01*
X117224285Y-75256190D01*
X117033809Y-75208571D01*
X116938571Y-75160952D01*
X116890952Y-75113333D01*
X116843333Y-75018095D01*
X116843333Y-74922857D01*
X116890952Y-74827619D01*
X116938571Y-74780000D01*
X117033809Y-74732380D01*
X117271904Y-74732380D01*
X117414761Y-74780000D01*
X118557619Y-74684761D02*
X117700476Y-75970476D01*
X118890952Y-74732380D02*
X118890952Y-75541904D01*
X118938571Y-75637142D01*
X118986190Y-75684761D01*
X119081428Y-75732380D01*
X119271904Y-75732380D01*
X119367142Y-75684761D01*
X119414761Y-75637142D01*
X119462380Y-75541904D01*
X119462380Y-74732380D01*
X119938571Y-75732380D02*
X119938571Y-74732380D01*
X120319523Y-74732380D01*
X120414761Y-74780000D01*
X120462380Y-74827619D01*
X120510000Y-74922857D01*
X120510000Y-75065714D01*
X120462380Y-75160952D01*
X120414761Y-75208571D01*
X120319523Y-75256190D01*
X119938571Y-75256190D01*
%TO.C,SW2*%
X106616666Y-83114761D02*
X106759523Y-83162380D01*
X106997619Y-83162380D01*
X107092857Y-83114761D01*
X107140476Y-83067142D01*
X107188095Y-82971904D01*
X107188095Y-82876666D01*
X107140476Y-82781428D01*
X107092857Y-82733809D01*
X106997619Y-82686190D01*
X106807142Y-82638571D01*
X106711904Y-82590952D01*
X106664285Y-82543333D01*
X106616666Y-82448095D01*
X106616666Y-82352857D01*
X106664285Y-82257619D01*
X106711904Y-82210000D01*
X106807142Y-82162380D01*
X107045238Y-82162380D01*
X107188095Y-82210000D01*
X107521428Y-82162380D02*
X107759523Y-83162380D01*
X107950000Y-82448095D01*
X108140476Y-83162380D01*
X108378571Y-82162380D01*
X108711904Y-82257619D02*
X108759523Y-82210000D01*
X108854761Y-82162380D01*
X109092857Y-82162380D01*
X109188095Y-82210000D01*
X109235714Y-82257619D01*
X109283333Y-82352857D01*
X109283333Y-82448095D01*
X109235714Y-82590952D01*
X108664285Y-83162380D01*
X109283333Y-83162380D01*
X113033809Y-88384761D02*
X113176666Y-88432380D01*
X113414761Y-88432380D01*
X113510000Y-88384761D01*
X113557619Y-88337142D01*
X113605238Y-88241904D01*
X113605238Y-88146666D01*
X113557619Y-88051428D01*
X113510000Y-88003809D01*
X113414761Y-87956190D01*
X113224285Y-87908571D01*
X113129047Y-87860952D01*
X113081428Y-87813333D01*
X113033809Y-87718095D01*
X113033809Y-87622857D01*
X113081428Y-87527619D01*
X113129047Y-87480000D01*
X113224285Y-87432380D01*
X113462380Y-87432380D01*
X113605238Y-87480000D01*
X114033809Y-87908571D02*
X114367142Y-87908571D01*
X114510000Y-88432380D02*
X114033809Y-88432380D01*
X114033809Y-87432380D01*
X114510000Y-87432380D01*
X115414761Y-88432380D02*
X114938571Y-88432380D01*
X114938571Y-87432380D01*
X115748095Y-87908571D02*
X116081428Y-87908571D01*
X116224285Y-88432380D02*
X115748095Y-88432380D01*
X115748095Y-87432380D01*
X116224285Y-87432380D01*
X117224285Y-88337142D02*
X117176666Y-88384761D01*
X117033809Y-88432380D01*
X116938571Y-88432380D01*
X116795714Y-88384761D01*
X116700476Y-88289523D01*
X116652857Y-88194285D01*
X116605238Y-88003809D01*
X116605238Y-87860952D01*
X116652857Y-87670476D01*
X116700476Y-87575238D01*
X116795714Y-87480000D01*
X116938571Y-87432380D01*
X117033809Y-87432380D01*
X117176666Y-87480000D01*
X117224285Y-87527619D01*
X117510000Y-87432380D02*
X118081428Y-87432380D01*
X117795714Y-88432380D02*
X117795714Y-87432380D01*
%TO.C,SW3*%
X106986666Y-98994761D02*
X107129523Y-99042380D01*
X107367619Y-99042380D01*
X107462857Y-98994761D01*
X107510476Y-98947142D01*
X107558095Y-98851904D01*
X107558095Y-98756666D01*
X107510476Y-98661428D01*
X107462857Y-98613809D01*
X107367619Y-98566190D01*
X107177142Y-98518571D01*
X107081904Y-98470952D01*
X107034285Y-98423333D01*
X106986666Y-98328095D01*
X106986666Y-98232857D01*
X107034285Y-98137619D01*
X107081904Y-98090000D01*
X107177142Y-98042380D01*
X107415238Y-98042380D01*
X107558095Y-98090000D01*
X107891428Y-98042380D02*
X108129523Y-99042380D01*
X108320000Y-98328095D01*
X108510476Y-99042380D01*
X108748571Y-98042380D01*
X109034285Y-98042380D02*
X109653333Y-98042380D01*
X109320000Y-98423333D01*
X109462857Y-98423333D01*
X109558095Y-98470952D01*
X109605714Y-98518571D01*
X109653333Y-98613809D01*
X109653333Y-98851904D01*
X109605714Y-98947142D01*
X109558095Y-98994761D01*
X109462857Y-99042380D01*
X109177142Y-99042380D01*
X109081904Y-98994761D01*
X109034285Y-98947142D01*
X110823904Y-92146380D02*
X110823904Y-91146380D01*
X111395333Y-92146380D01*
X111395333Y-91146380D01*
X111871523Y-91622571D02*
X112204857Y-91622571D01*
X112347714Y-92146380D02*
X111871523Y-92146380D01*
X111871523Y-91146380D01*
X112347714Y-91146380D01*
X112681047Y-91146380D02*
X113347714Y-92146380D01*
X113347714Y-91146380D02*
X112681047Y-92146380D01*
X113585809Y-91146380D02*
X114157238Y-91146380D01*
X113871523Y-92146380D02*
X113871523Y-91146380D01*
X115204857Y-91098761D02*
X114347714Y-92384476D01*
X115538190Y-92146380D02*
X115538190Y-91146380D01*
X115776285Y-91146380D01*
X115919142Y-91194000D01*
X116014380Y-91289238D01*
X116062000Y-91384476D01*
X116109619Y-91574952D01*
X116109619Y-91717809D01*
X116062000Y-91908285D01*
X116014380Y-92003523D01*
X115919142Y-92098761D01*
X115776285Y-92146380D01*
X115538190Y-92146380D01*
X116728666Y-91146380D02*
X116919142Y-91146380D01*
X117014380Y-91194000D01*
X117109619Y-91289238D01*
X117157238Y-91479714D01*
X117157238Y-91813047D01*
X117109619Y-92003523D01*
X117014380Y-92098761D01*
X116919142Y-92146380D01*
X116728666Y-92146380D01*
X116633428Y-92098761D01*
X116538190Y-92003523D01*
X116490571Y-91813047D01*
X116490571Y-91479714D01*
X116538190Y-91289238D01*
X116633428Y-91194000D01*
X116728666Y-91146380D01*
X117490571Y-91146380D02*
X117728666Y-92146380D01*
X117919142Y-91432095D01*
X118109619Y-92146380D01*
X118347714Y-91146380D01*
X118728666Y-92146380D02*
X118728666Y-91146380D01*
X119300095Y-92146380D01*
X119300095Y-91146380D01*
%TO.C,SW4*%
X123126666Y-75969761D02*
X123269523Y-76017380D01*
X123507619Y-76017380D01*
X123602857Y-75969761D01*
X123650476Y-75922142D01*
X123698095Y-75826904D01*
X123698095Y-75731666D01*
X123650476Y-75636428D01*
X123602857Y-75588809D01*
X123507619Y-75541190D01*
X123317142Y-75493571D01*
X123221904Y-75445952D01*
X123174285Y-75398333D01*
X123126666Y-75303095D01*
X123126666Y-75207857D01*
X123174285Y-75112619D01*
X123221904Y-75065000D01*
X123317142Y-75017380D01*
X123555238Y-75017380D01*
X123698095Y-75065000D01*
X124031428Y-75017380D02*
X124269523Y-76017380D01*
X124460000Y-75303095D01*
X124650476Y-76017380D01*
X124888571Y-75017380D01*
X125698095Y-75350714D02*
X125698095Y-76017380D01*
X125460000Y-74969761D02*
X125221904Y-75684047D01*
X125840952Y-75684047D01*
X128722619Y-76017380D02*
X128389285Y-75541190D01*
X128151190Y-76017380D02*
X128151190Y-75017380D01*
X128532142Y-75017380D01*
X128627380Y-75065000D01*
X128675000Y-75112619D01*
X128722619Y-75207857D01*
X128722619Y-75350714D01*
X128675000Y-75445952D01*
X128627380Y-75493571D01*
X128532142Y-75541190D01*
X128151190Y-75541190D01*
X129151190Y-75493571D02*
X129484523Y-75493571D01*
X129627380Y-76017380D02*
X129151190Y-76017380D01*
X129151190Y-75017380D01*
X129627380Y-75017380D01*
X130008333Y-75969761D02*
X130151190Y-76017380D01*
X130389285Y-76017380D01*
X130484523Y-75969761D01*
X130532142Y-75922142D01*
X130579761Y-75826904D01*
X130579761Y-75731666D01*
X130532142Y-75636428D01*
X130484523Y-75588809D01*
X130389285Y-75541190D01*
X130198809Y-75493571D01*
X130103571Y-75445952D01*
X130055952Y-75398333D01*
X130008333Y-75303095D01*
X130008333Y-75207857D01*
X130055952Y-75112619D01*
X130103571Y-75065000D01*
X130198809Y-75017380D01*
X130436904Y-75017380D01*
X130579761Y-75065000D01*
X131008333Y-75493571D02*
X131341666Y-75493571D01*
X131484523Y-76017380D02*
X131008333Y-76017380D01*
X131008333Y-75017380D01*
X131484523Y-75017380D01*
X131770238Y-75017380D02*
X132341666Y-75017380D01*
X132055952Y-76017380D02*
X132055952Y-75017380D01*
%TD*%
M02*
