%TF.GenerationSoftware,KiCad,Pcbnew,5.1.8-5.1.8*%
%TF.CreationDate,2022-05-17T18:34:16+02:00*%
%TF.ProjectId,FloppyEmuButtonPanel,466c6f70-7079-4456-9d75-427574746f6e,1.0*%
%TF.SameCoordinates,Original*%
%TF.FileFunction,Copper,L2,Bot*%
%TF.FilePolarity,Positive*%
%FSLAX46Y46*%
G04 Gerber Fmt 4.6, Leading zero omitted, Abs format (unit mm)*
G04 Created by KiCad (PCBNEW 5.1.8-5.1.8) date 2022-05-17 18:34:16*
%MOMM*%
%LPD*%
G01*
G04 APERTURE LIST*
%TA.AperFunction,ComponentPad*%
%ADD10C,1.700000*%
%TD*%
%TA.AperFunction,ComponentPad*%
%ADD11R,1.700000X1.700000*%
%TD*%
%TA.AperFunction,ComponentPad*%
%ADD12C,1.600000*%
%TD*%
%TA.AperFunction,ComponentPad*%
%ADD13O,1.600000X1.600000*%
%TD*%
%TA.AperFunction,ComponentPad*%
%ADD14O,1.700000X1.700000*%
%TD*%
%TA.AperFunction,ComponentPad*%
%ADD15C,2.000000*%
%TD*%
%TA.AperFunction,Conductor*%
%ADD16C,0.500000*%
%TD*%
%TA.AperFunction,Conductor*%
%ADD17C,0.250000*%
%TD*%
%TA.AperFunction,Conductor*%
%ADD18C,0.254000*%
%TD*%
%TA.AperFunction,Conductor*%
%ADD19C,0.100000*%
%TD*%
G04 APERTURE END LIST*
D10*
%TO.P,J1,10*%
%TO.N,/SELECT*%
X122555000Y-85725000D03*
%TO.P,J1,9*%
%TO.N,/NEXT*%
X122555000Y-88265000D03*
%TO.P,J1,8*%
%TO.N,/PREVIOUS*%
X125095000Y-85725000D03*
%TO.P,J1,7*%
%TO.N,GND*%
X125095000Y-88265000D03*
%TO.P,J1,6*%
%TO.N,/RESET*%
X127635000Y-85725000D03*
%TO.P,J1,5*%
%TO.N,Net-(J1-Pad5)*%
X127635000Y-88265000D03*
%TO.P,J1,4*%
%TO.N,/STATUS*%
X130175000Y-85725000D03*
%TO.P,J1,3*%
%TO.N,Net-(J1-Pad3)*%
X130175000Y-88265000D03*
%TO.P,J1,2*%
%TO.N,+5V*%
X132715000Y-85725000D03*
D11*
%TO.P,J1,1*%
%TO.N,Net-(J1-Pad1)*%
X132715000Y-88265000D03*
%TD*%
D12*
%TO.P,R2,1*%
%TO.N,+5V*%
X131826000Y-96012000D03*
D13*
%TO.P,R2,2*%
%TO.N,Net-(D2-Pad2)*%
X124206000Y-96012000D03*
%TD*%
D11*
%TO.P,D2,1*%
%TO.N,GND*%
X106426000Y-90424000D03*
D14*
%TO.P,D2,2*%
%TO.N,Net-(D2-Pad2)*%
X106426000Y-87884000D03*
%TD*%
D12*
%TO.P,R1,1*%
%TO.N,+5V*%
X118745000Y-77470000D03*
D13*
%TO.P,R1,2*%
%TO.N,Net-(D1-Pad2)*%
X111125000Y-77470000D03*
%TD*%
D11*
%TO.P,D1,1*%
%TO.N,/STATUS*%
X106400000Y-80000000D03*
D14*
%TO.P,D1,2*%
%TO.N,Net-(D1-Pad2)*%
X106400000Y-77460000D03*
%TD*%
D15*
%TO.P,SW1,1*%
%TO.N,GND*%
X118260000Y-68580000D03*
%TO.P,SW1,2*%
%TO.N,/PREVIOUS*%
X118260000Y-73080000D03*
%TO.P,SW1,1*%
%TO.N,GND*%
X111760000Y-68580000D03*
%TO.P,SW1,2*%
%TO.N,/PREVIOUS*%
X111760000Y-73080000D03*
%TD*%
%TO.P,SW2,2*%
%TO.N,/SELECT*%
X111760000Y-85780000D03*
%TO.P,SW2,1*%
%TO.N,GND*%
X111760000Y-81280000D03*
%TO.P,SW2,2*%
%TO.N,/SELECT*%
X118260000Y-85780000D03*
%TO.P,SW2,1*%
%TO.N,GND*%
X118260000Y-81280000D03*
%TD*%
%TO.P,SW3,1*%
%TO.N,/NEXT*%
X118260000Y-93980000D03*
%TO.P,SW3,2*%
%TO.N,GND*%
X118260000Y-98480000D03*
%TO.P,SW3,1*%
%TO.N,/NEXT*%
X111760000Y-93980000D03*
%TO.P,SW3,2*%
%TO.N,GND*%
X111760000Y-98480000D03*
%TD*%
%TO.P,SW4,2*%
%TO.N,/RESET*%
X124460000Y-73080000D03*
%TO.P,SW4,1*%
%TO.N,GND*%
X124460000Y-68580000D03*
%TO.P,SW4,2*%
%TO.N,/RESET*%
X130960000Y-73080000D03*
%TO.P,SW4,1*%
%TO.N,GND*%
X130960000Y-68580000D03*
%TD*%
D16*
%TO.N,/SELECT*%
X118618000Y-86138000D02*
X118260000Y-85780000D01*
X118260000Y-85780000D02*
X111760000Y-85780000D01*
X118260000Y-85780000D02*
X120341000Y-85780000D01*
X122272038Y-85780000D02*
X122441019Y-85611019D01*
X118260000Y-85780000D02*
X122272038Y-85780000D01*
%TO.N,/PREVIOUS*%
X111760000Y-73080000D02*
X118260000Y-73080000D01*
X118260000Y-73080000D02*
X124809000Y-79629000D01*
X125095000Y-85725000D02*
X125095000Y-79915000D01*
X125095000Y-79915000D02*
X124809000Y-79629000D01*
%TO.N,/RESET*%
X127635000Y-73135000D02*
X127690000Y-73080000D01*
X127635000Y-76835000D02*
X127635000Y-73135000D01*
X127690000Y-73080000D02*
X130960000Y-73080000D01*
X124460000Y-73080000D02*
X127690000Y-73080000D01*
X127635000Y-85725000D02*
X127635000Y-76835000D01*
X127635000Y-76835000D02*
X127635000Y-76255000D01*
D17*
%TO.N,GND*%
X111760000Y-68580000D02*
X124460000Y-68580000D01*
X124460000Y-68580000D02*
X130960000Y-68580000D01*
D16*
X111760000Y-68580000D02*
X130960000Y-68580000D01*
X111760000Y-98480000D02*
X118260000Y-98480000D01*
X125095000Y-91645000D02*
X125095000Y-88265000D01*
X118260000Y-98480000D02*
X125095000Y-91645000D01*
X109855000Y-81280000D02*
X114935000Y-81280000D01*
X114935000Y-81280000D02*
X118260000Y-81280000D01*
X109855000Y-96520000D02*
X109855000Y-91440000D01*
X111760000Y-98480000D02*
X109855000Y-96575000D01*
X109855000Y-96575000D02*
X109855000Y-95250000D01*
X110490000Y-69850000D02*
X111760000Y-68580000D01*
X109855000Y-74295000D02*
X109855000Y-70485000D01*
X111125000Y-75565000D02*
X109855000Y-74295000D01*
X113665000Y-75565000D02*
X111125000Y-75565000D01*
X109855000Y-70485000D02*
X110490000Y-69850000D01*
X114935000Y-76835000D02*
X113665000Y-75565000D01*
X114935000Y-81280000D02*
X114935000Y-76835000D01*
X109728000Y-90424000D02*
X109855000Y-90551000D01*
X106426000Y-90424000D02*
X109728000Y-90424000D01*
X109855000Y-90551000D02*
X109855000Y-81280000D01*
X109855000Y-91440000D02*
X109855000Y-90551000D01*
%TO.N,/NEXT*%
X118260000Y-93980000D02*
X111760000Y-93980000D01*
X118260000Y-93980000D02*
X118260000Y-90782000D01*
X122555000Y-88265000D02*
X120777000Y-88265000D01*
X118260000Y-90782000D02*
X120777000Y-88265000D01*
%TO.N,Net-(D1-Pad2)*%
X111115000Y-77460000D02*
X111125000Y-77470000D01*
X106400000Y-77460000D02*
X111115000Y-77460000D01*
%TD*%
D18*
%TO.N,GND*%
X110624585Y-67624193D02*
X110360186Y-67719956D01*
X110219296Y-68009571D01*
X110137616Y-68321108D01*
X110118282Y-68642595D01*
X110162039Y-68961675D01*
X110267205Y-69266088D01*
X110360186Y-69440044D01*
X110624587Y-69535808D01*
X111580395Y-68580000D01*
X111566253Y-68565858D01*
X111745858Y-68386253D01*
X111760000Y-68400395D01*
X111774143Y-68386253D01*
X111953748Y-68565858D01*
X111939605Y-68580000D01*
X112895413Y-69535808D01*
X113159814Y-69440044D01*
X113300704Y-69150429D01*
X113382384Y-68838892D01*
X113401718Y-68517405D01*
X113357961Y-68198325D01*
X113252795Y-67893912D01*
X113159814Y-67719956D01*
X112895415Y-67624193D01*
X112959608Y-67560000D01*
X117060392Y-67560000D01*
X117124585Y-67624193D01*
X116860186Y-67719956D01*
X116719296Y-68009571D01*
X116637616Y-68321108D01*
X116618282Y-68642595D01*
X116662039Y-68961675D01*
X116767205Y-69266088D01*
X116860186Y-69440044D01*
X117124587Y-69535808D01*
X118080395Y-68580000D01*
X118066253Y-68565858D01*
X118245858Y-68386253D01*
X118260000Y-68400395D01*
X118274143Y-68386253D01*
X118453748Y-68565858D01*
X118439605Y-68580000D01*
X119395413Y-69535808D01*
X119659814Y-69440044D01*
X119800704Y-69150429D01*
X119882384Y-68838892D01*
X119901718Y-68517405D01*
X119857961Y-68198325D01*
X119752795Y-67893912D01*
X119659814Y-67719956D01*
X119395415Y-67624193D01*
X119459608Y-67560000D01*
X123260392Y-67560000D01*
X123324585Y-67624193D01*
X123060186Y-67719956D01*
X122919296Y-68009571D01*
X122837616Y-68321108D01*
X122818282Y-68642595D01*
X122862039Y-68961675D01*
X122967205Y-69266088D01*
X123060186Y-69440044D01*
X123324587Y-69535808D01*
X124280395Y-68580000D01*
X124266253Y-68565858D01*
X124445858Y-68386253D01*
X124460000Y-68400395D01*
X124474143Y-68386253D01*
X124653748Y-68565858D01*
X124639605Y-68580000D01*
X125595413Y-69535808D01*
X125859814Y-69440044D01*
X126000704Y-69150429D01*
X126082384Y-68838892D01*
X126101718Y-68517405D01*
X126057961Y-68198325D01*
X125952795Y-67893912D01*
X125859814Y-67719956D01*
X125595415Y-67624193D01*
X125659608Y-67560000D01*
X129760392Y-67560000D01*
X129824585Y-67624193D01*
X129560186Y-67719956D01*
X129419296Y-68009571D01*
X129337616Y-68321108D01*
X129318282Y-68642595D01*
X129362039Y-68961675D01*
X129467205Y-69266088D01*
X129560186Y-69440044D01*
X129824587Y-69535808D01*
X130780395Y-68580000D01*
X130766253Y-68565858D01*
X130945858Y-68386253D01*
X130960000Y-68400395D01*
X130974143Y-68386253D01*
X131153748Y-68565858D01*
X131139605Y-68580000D01*
X132095413Y-69535808D01*
X132359814Y-69440044D01*
X132500704Y-69150429D01*
X132582384Y-68838892D01*
X132601718Y-68517405D01*
X132557961Y-68198325D01*
X132452795Y-67893912D01*
X132359814Y-67719956D01*
X132095415Y-67624193D01*
X132159608Y-67560000D01*
X139640001Y-67560000D01*
X139640000Y-99540000D01*
X119499608Y-99540000D01*
X119395415Y-99435807D01*
X119659814Y-99340044D01*
X119800704Y-99050429D01*
X119882384Y-98738892D01*
X119901718Y-98417405D01*
X119857961Y-98098325D01*
X119752795Y-97793912D01*
X119659814Y-97619956D01*
X119395413Y-97524192D01*
X118439605Y-98480000D01*
X118453748Y-98494143D01*
X118274143Y-98673748D01*
X118260000Y-98659605D01*
X118245858Y-98673748D01*
X118066253Y-98494143D01*
X118080395Y-98480000D01*
X117124587Y-97524192D01*
X116860186Y-97619956D01*
X116719296Y-97909571D01*
X116637616Y-98221108D01*
X116618282Y-98542595D01*
X116662039Y-98861675D01*
X116767205Y-99166088D01*
X116860186Y-99340044D01*
X117124585Y-99435807D01*
X117020392Y-99540000D01*
X112999608Y-99540000D01*
X112895415Y-99435807D01*
X113159814Y-99340044D01*
X113300704Y-99050429D01*
X113382384Y-98738892D01*
X113401718Y-98417405D01*
X113357961Y-98098325D01*
X113252795Y-97793912D01*
X113159814Y-97619956D01*
X112895413Y-97524192D01*
X111939605Y-98480000D01*
X111953748Y-98494143D01*
X111774143Y-98673748D01*
X111760000Y-98659605D01*
X111745858Y-98673748D01*
X111566253Y-98494143D01*
X111580395Y-98480000D01*
X110624587Y-97524192D01*
X110360186Y-97619956D01*
X110219296Y-97909571D01*
X110137616Y-98221108D01*
X110118282Y-98542595D01*
X110162039Y-98861675D01*
X110267205Y-99166088D01*
X110360186Y-99340044D01*
X110624585Y-99435807D01*
X110520392Y-99540000D01*
X103022000Y-99540000D01*
X103022000Y-96009872D01*
X103885000Y-96009872D01*
X103885000Y-96450128D01*
X103970890Y-96881925D01*
X104139369Y-97288669D01*
X104383962Y-97654729D01*
X104695271Y-97966038D01*
X105061331Y-98210631D01*
X105468075Y-98379110D01*
X105899872Y-98465000D01*
X106340128Y-98465000D01*
X106771925Y-98379110D01*
X107178669Y-98210631D01*
X107544729Y-97966038D01*
X107856038Y-97654729D01*
X108063267Y-97344587D01*
X110804192Y-97344587D01*
X111760000Y-98300395D01*
X112715808Y-97344587D01*
X117304192Y-97344587D01*
X118260000Y-98300395D01*
X119215808Y-97344587D01*
X119120044Y-97080186D01*
X118830429Y-96939296D01*
X118518892Y-96857616D01*
X118197405Y-96838282D01*
X117878325Y-96882039D01*
X117573912Y-96987205D01*
X117399956Y-97080186D01*
X117304192Y-97344587D01*
X112715808Y-97344587D01*
X112620044Y-97080186D01*
X112330429Y-96939296D01*
X112018892Y-96857616D01*
X111697405Y-96838282D01*
X111378325Y-96882039D01*
X111073912Y-96987205D01*
X110899956Y-97080186D01*
X110804192Y-97344587D01*
X108063267Y-97344587D01*
X108100631Y-97288669D01*
X108269110Y-96881925D01*
X108355000Y-96450128D01*
X108355000Y-96009872D01*
X108327310Y-95870665D01*
X122771000Y-95870665D01*
X122771000Y-96153335D01*
X122826147Y-96430574D01*
X122934320Y-96691727D01*
X123091363Y-96926759D01*
X123291241Y-97126637D01*
X123526273Y-97283680D01*
X123787426Y-97391853D01*
X124064665Y-97447000D01*
X124347335Y-97447000D01*
X124624574Y-97391853D01*
X124885727Y-97283680D01*
X125120759Y-97126637D01*
X125320637Y-96926759D01*
X125477680Y-96691727D01*
X125585853Y-96430574D01*
X125641000Y-96153335D01*
X125641000Y-95870665D01*
X130391000Y-95870665D01*
X130391000Y-96153335D01*
X130446147Y-96430574D01*
X130554320Y-96691727D01*
X130711363Y-96926759D01*
X130911241Y-97126637D01*
X131146273Y-97283680D01*
X131407426Y-97391853D01*
X131684665Y-97447000D01*
X131967335Y-97447000D01*
X132244574Y-97391853D01*
X132505727Y-97283680D01*
X132740759Y-97126637D01*
X132940637Y-96926759D01*
X133097680Y-96691727D01*
X133205853Y-96430574D01*
X133261000Y-96153335D01*
X133261000Y-96009872D01*
X134365000Y-96009872D01*
X134365000Y-96450128D01*
X134450890Y-96881925D01*
X134619369Y-97288669D01*
X134863962Y-97654729D01*
X135175271Y-97966038D01*
X135541331Y-98210631D01*
X135948075Y-98379110D01*
X136379872Y-98465000D01*
X136820128Y-98465000D01*
X137251925Y-98379110D01*
X137658669Y-98210631D01*
X138024729Y-97966038D01*
X138336038Y-97654729D01*
X138580631Y-97288669D01*
X138749110Y-96881925D01*
X138835000Y-96450128D01*
X138835000Y-96009872D01*
X138749110Y-95578075D01*
X138580631Y-95171331D01*
X138336038Y-94805271D01*
X138024729Y-94493962D01*
X137658669Y-94249369D01*
X137251925Y-94080890D01*
X136820128Y-93995000D01*
X136379872Y-93995000D01*
X135948075Y-94080890D01*
X135541331Y-94249369D01*
X135175271Y-94493962D01*
X134863962Y-94805271D01*
X134619369Y-95171331D01*
X134450890Y-95578075D01*
X134365000Y-96009872D01*
X133261000Y-96009872D01*
X133261000Y-95870665D01*
X133205853Y-95593426D01*
X133097680Y-95332273D01*
X132940637Y-95097241D01*
X132740759Y-94897363D01*
X132505727Y-94740320D01*
X132244574Y-94632147D01*
X131967335Y-94577000D01*
X131684665Y-94577000D01*
X131407426Y-94632147D01*
X131146273Y-94740320D01*
X130911241Y-94897363D01*
X130711363Y-95097241D01*
X130554320Y-95332273D01*
X130446147Y-95593426D01*
X130391000Y-95870665D01*
X125641000Y-95870665D01*
X125585853Y-95593426D01*
X125477680Y-95332273D01*
X125320637Y-95097241D01*
X125120759Y-94897363D01*
X124885727Y-94740320D01*
X124624574Y-94632147D01*
X124347335Y-94577000D01*
X124064665Y-94577000D01*
X123787426Y-94632147D01*
X123526273Y-94740320D01*
X123291241Y-94897363D01*
X123091363Y-95097241D01*
X122934320Y-95332273D01*
X122826147Y-95593426D01*
X122771000Y-95870665D01*
X108327310Y-95870665D01*
X108269110Y-95578075D01*
X108100631Y-95171331D01*
X107856038Y-94805271D01*
X107544729Y-94493962D01*
X107178669Y-94249369D01*
X106771925Y-94080890D01*
X106340128Y-93995000D01*
X105899872Y-93995000D01*
X105468075Y-94080890D01*
X105061331Y-94249369D01*
X104695271Y-94493962D01*
X104383962Y-94805271D01*
X104139369Y-95171331D01*
X103970890Y-95578075D01*
X103885000Y-96009872D01*
X103022000Y-96009872D01*
X103022000Y-91274000D01*
X104937928Y-91274000D01*
X104950188Y-91398482D01*
X104986498Y-91518180D01*
X105045463Y-91628494D01*
X105124815Y-91725185D01*
X105221506Y-91804537D01*
X105331820Y-91863502D01*
X105451518Y-91899812D01*
X105576000Y-91912072D01*
X106140250Y-91909000D01*
X106299000Y-91750250D01*
X106299000Y-90551000D01*
X106553000Y-90551000D01*
X106553000Y-91750250D01*
X106711750Y-91909000D01*
X107276000Y-91912072D01*
X107400482Y-91899812D01*
X107520180Y-91863502D01*
X107630494Y-91804537D01*
X107727185Y-91725185D01*
X107806537Y-91628494D01*
X107865502Y-91518180D01*
X107901812Y-91398482D01*
X107914072Y-91274000D01*
X107911000Y-90709750D01*
X107752250Y-90551000D01*
X106553000Y-90551000D01*
X106299000Y-90551000D01*
X105099750Y-90551000D01*
X104941000Y-90709750D01*
X104937928Y-91274000D01*
X103022000Y-91274000D01*
X103022000Y-89574000D01*
X104937928Y-89574000D01*
X104941000Y-90138250D01*
X105099750Y-90297000D01*
X106299000Y-90297000D01*
X106299000Y-90277000D01*
X106553000Y-90277000D01*
X106553000Y-90297000D01*
X107752250Y-90297000D01*
X107911000Y-90138250D01*
X107914072Y-89574000D01*
X107901812Y-89449518D01*
X107865502Y-89329820D01*
X107806537Y-89219506D01*
X107727185Y-89122815D01*
X107630494Y-89043463D01*
X107520180Y-88984498D01*
X107447620Y-88962487D01*
X107579475Y-88830632D01*
X107741990Y-88587411D01*
X107853932Y-88317158D01*
X107911000Y-88030260D01*
X107911000Y-87737740D01*
X107853932Y-87450842D01*
X107741990Y-87180589D01*
X107579475Y-86937368D01*
X107372632Y-86730525D01*
X107129411Y-86568010D01*
X106859158Y-86456068D01*
X106572260Y-86399000D01*
X106279740Y-86399000D01*
X105992842Y-86456068D01*
X105722589Y-86568010D01*
X105479368Y-86730525D01*
X105272525Y-86937368D01*
X105110010Y-87180589D01*
X104998068Y-87450842D01*
X104941000Y-87737740D01*
X104941000Y-88030260D01*
X104998068Y-88317158D01*
X105110010Y-88587411D01*
X105272525Y-88830632D01*
X105404380Y-88962487D01*
X105331820Y-88984498D01*
X105221506Y-89043463D01*
X105124815Y-89122815D01*
X105045463Y-89219506D01*
X104986498Y-89329820D01*
X104950188Y-89449518D01*
X104937928Y-89574000D01*
X103022000Y-89574000D01*
X103022000Y-82415413D01*
X110804192Y-82415413D01*
X110899956Y-82679814D01*
X111189571Y-82820704D01*
X111501108Y-82902384D01*
X111822595Y-82921718D01*
X112141675Y-82877961D01*
X112446088Y-82772795D01*
X112620044Y-82679814D01*
X112715808Y-82415413D01*
X117304192Y-82415413D01*
X117399956Y-82679814D01*
X117689571Y-82820704D01*
X118001108Y-82902384D01*
X118322595Y-82921718D01*
X118641675Y-82877961D01*
X118946088Y-82772795D01*
X119120044Y-82679814D01*
X119215808Y-82415413D01*
X118260000Y-81459605D01*
X117304192Y-82415413D01*
X112715808Y-82415413D01*
X111760000Y-81459605D01*
X110804192Y-82415413D01*
X103022000Y-82415413D01*
X103022000Y-79150000D01*
X104911928Y-79150000D01*
X104911928Y-80850000D01*
X104924188Y-80974482D01*
X104960498Y-81094180D01*
X105019463Y-81204494D01*
X105098815Y-81301185D01*
X105195506Y-81380537D01*
X105305820Y-81439502D01*
X105425518Y-81475812D01*
X105550000Y-81488072D01*
X107250000Y-81488072D01*
X107374482Y-81475812D01*
X107494180Y-81439502D01*
X107604494Y-81380537D01*
X107650726Y-81342595D01*
X110118282Y-81342595D01*
X110162039Y-81661675D01*
X110267205Y-81966088D01*
X110360186Y-82140044D01*
X110624587Y-82235808D01*
X111580395Y-81280000D01*
X111939605Y-81280000D01*
X112895413Y-82235808D01*
X113159814Y-82140044D01*
X113300704Y-81850429D01*
X113382384Y-81538892D01*
X113394189Y-81342595D01*
X116618282Y-81342595D01*
X116662039Y-81661675D01*
X116767205Y-81966088D01*
X116860186Y-82140044D01*
X117124587Y-82235808D01*
X118080395Y-81280000D01*
X118439605Y-81280000D01*
X119395413Y-82235808D01*
X119659814Y-82140044D01*
X119800704Y-81850429D01*
X119882384Y-81538892D01*
X119901718Y-81217405D01*
X119857961Y-80898325D01*
X119752795Y-80593912D01*
X119659814Y-80419956D01*
X119395413Y-80324192D01*
X118439605Y-81280000D01*
X118080395Y-81280000D01*
X117124587Y-80324192D01*
X116860186Y-80419956D01*
X116719296Y-80709571D01*
X116637616Y-81021108D01*
X116618282Y-81342595D01*
X113394189Y-81342595D01*
X113401718Y-81217405D01*
X113357961Y-80898325D01*
X113252795Y-80593912D01*
X113159814Y-80419956D01*
X112895413Y-80324192D01*
X111939605Y-81280000D01*
X111580395Y-81280000D01*
X110624587Y-80324192D01*
X110360186Y-80419956D01*
X110219296Y-80709571D01*
X110137616Y-81021108D01*
X110118282Y-81342595D01*
X107650726Y-81342595D01*
X107701185Y-81301185D01*
X107780537Y-81204494D01*
X107839502Y-81094180D01*
X107875812Y-80974482D01*
X107888072Y-80850000D01*
X107888072Y-80144587D01*
X110804192Y-80144587D01*
X111760000Y-81100395D01*
X112715808Y-80144587D01*
X117304192Y-80144587D01*
X118260000Y-81100395D01*
X119215808Y-80144587D01*
X119120044Y-79880186D01*
X118830429Y-79739296D01*
X118518892Y-79657616D01*
X118197405Y-79638282D01*
X117878325Y-79682039D01*
X117573912Y-79787205D01*
X117399956Y-79880186D01*
X117304192Y-80144587D01*
X112715808Y-80144587D01*
X112620044Y-79880186D01*
X112330429Y-79739296D01*
X112018892Y-79657616D01*
X111697405Y-79638282D01*
X111378325Y-79682039D01*
X111073912Y-79787205D01*
X110899956Y-79880186D01*
X110804192Y-80144587D01*
X107888072Y-80144587D01*
X107888072Y-79150000D01*
X107875812Y-79025518D01*
X107839502Y-78905820D01*
X107780537Y-78795506D01*
X107701185Y-78698815D01*
X107604494Y-78619463D01*
X107494180Y-78560498D01*
X107421620Y-78538487D01*
X107553475Y-78406632D01*
X107594656Y-78345000D01*
X109983797Y-78345000D01*
X110010363Y-78384759D01*
X110210241Y-78584637D01*
X110445273Y-78741680D01*
X110706426Y-78849853D01*
X110983665Y-78905000D01*
X111266335Y-78905000D01*
X111543574Y-78849853D01*
X111804727Y-78741680D01*
X112039759Y-78584637D01*
X112239637Y-78384759D01*
X112396680Y-78149727D01*
X112504853Y-77888574D01*
X112560000Y-77611335D01*
X112560000Y-77328665D01*
X117310000Y-77328665D01*
X117310000Y-77611335D01*
X117365147Y-77888574D01*
X117473320Y-78149727D01*
X117630363Y-78384759D01*
X117830241Y-78584637D01*
X118065273Y-78741680D01*
X118326426Y-78849853D01*
X118603665Y-78905000D01*
X118886335Y-78905000D01*
X119163574Y-78849853D01*
X119424727Y-78741680D01*
X119659759Y-78584637D01*
X119859637Y-78384759D01*
X120016680Y-78149727D01*
X120124853Y-77888574D01*
X120180000Y-77611335D01*
X120180000Y-77328665D01*
X120124853Y-77051426D01*
X120016680Y-76790273D01*
X119859637Y-76555241D01*
X119659759Y-76355363D01*
X119424727Y-76198320D01*
X119163574Y-76090147D01*
X118886335Y-76035000D01*
X118603665Y-76035000D01*
X118326426Y-76090147D01*
X118065273Y-76198320D01*
X117830241Y-76355363D01*
X117630363Y-76555241D01*
X117473320Y-76790273D01*
X117365147Y-77051426D01*
X117310000Y-77328665D01*
X112560000Y-77328665D01*
X112504853Y-77051426D01*
X112396680Y-76790273D01*
X112239637Y-76555241D01*
X112039759Y-76355363D01*
X111804727Y-76198320D01*
X111543574Y-76090147D01*
X111266335Y-76035000D01*
X110983665Y-76035000D01*
X110706426Y-76090147D01*
X110445273Y-76198320D01*
X110210241Y-76355363D01*
X110010363Y-76555241D01*
X109997160Y-76575000D01*
X107594656Y-76575000D01*
X107553475Y-76513368D01*
X107346632Y-76306525D01*
X107103411Y-76144010D01*
X106833158Y-76032068D01*
X106546260Y-75975000D01*
X106253740Y-75975000D01*
X105966842Y-76032068D01*
X105696589Y-76144010D01*
X105453368Y-76306525D01*
X105246525Y-76513368D01*
X105084010Y-76756589D01*
X104972068Y-77026842D01*
X104915000Y-77313740D01*
X104915000Y-77606260D01*
X104972068Y-77893158D01*
X105084010Y-78163411D01*
X105246525Y-78406632D01*
X105378380Y-78538487D01*
X105305820Y-78560498D01*
X105195506Y-78619463D01*
X105098815Y-78698815D01*
X105019463Y-78795506D01*
X104960498Y-78905820D01*
X104924188Y-79025518D01*
X104911928Y-79150000D01*
X103022000Y-79150000D01*
X103022000Y-70609872D01*
X103885000Y-70609872D01*
X103885000Y-71050128D01*
X103970890Y-71481925D01*
X104139369Y-71888669D01*
X104383962Y-72254729D01*
X104695271Y-72566038D01*
X105061331Y-72810631D01*
X105468075Y-72979110D01*
X105899872Y-73065000D01*
X106340128Y-73065000D01*
X106771925Y-72979110D01*
X106917122Y-72918967D01*
X110125000Y-72918967D01*
X110125000Y-73241033D01*
X110187832Y-73556912D01*
X110311082Y-73854463D01*
X110490013Y-74122252D01*
X110717748Y-74349987D01*
X110985537Y-74528918D01*
X111283088Y-74652168D01*
X111598967Y-74715000D01*
X111921033Y-74715000D01*
X112236912Y-74652168D01*
X112534463Y-74528918D01*
X112802252Y-74349987D01*
X113029987Y-74122252D01*
X113135059Y-73965000D01*
X116884941Y-73965000D01*
X116990013Y-74122252D01*
X117217748Y-74349987D01*
X117485537Y-74528918D01*
X117783088Y-74652168D01*
X118098967Y-74715000D01*
X118421033Y-74715000D01*
X118606525Y-74678103D01*
X124210001Y-80281580D01*
X124210000Y-84530344D01*
X124148368Y-84571525D01*
X123941525Y-84778368D01*
X123825000Y-84952760D01*
X123708475Y-84778368D01*
X123501632Y-84571525D01*
X123258411Y-84409010D01*
X122988158Y-84297068D01*
X122701260Y-84240000D01*
X122408740Y-84240000D01*
X122121842Y-84297068D01*
X121851589Y-84409010D01*
X121608368Y-84571525D01*
X121401525Y-84778368D01*
X121323594Y-84895000D01*
X119635059Y-84895000D01*
X119529987Y-84737748D01*
X119302252Y-84510013D01*
X119034463Y-84331082D01*
X118736912Y-84207832D01*
X118421033Y-84145000D01*
X118098967Y-84145000D01*
X117783088Y-84207832D01*
X117485537Y-84331082D01*
X117217748Y-84510013D01*
X116990013Y-84737748D01*
X116884941Y-84895000D01*
X113135059Y-84895000D01*
X113029987Y-84737748D01*
X112802252Y-84510013D01*
X112534463Y-84331082D01*
X112236912Y-84207832D01*
X111921033Y-84145000D01*
X111598967Y-84145000D01*
X111283088Y-84207832D01*
X110985537Y-84331082D01*
X110717748Y-84510013D01*
X110490013Y-84737748D01*
X110311082Y-85005537D01*
X110187832Y-85303088D01*
X110125000Y-85618967D01*
X110125000Y-85941033D01*
X110187832Y-86256912D01*
X110311082Y-86554463D01*
X110490013Y-86822252D01*
X110717748Y-87049987D01*
X110985537Y-87228918D01*
X111283088Y-87352168D01*
X111598967Y-87415000D01*
X111921033Y-87415000D01*
X112236912Y-87352168D01*
X112534463Y-87228918D01*
X112802252Y-87049987D01*
X113029987Y-86822252D01*
X113135059Y-86665000D01*
X116884941Y-86665000D01*
X116990013Y-86822252D01*
X117217748Y-87049987D01*
X117485537Y-87228918D01*
X117783088Y-87352168D01*
X118098967Y-87415000D01*
X118421033Y-87415000D01*
X118736912Y-87352168D01*
X119034463Y-87228918D01*
X119302252Y-87049987D01*
X119529987Y-86822252D01*
X119635059Y-86665000D01*
X121397094Y-86665000D01*
X121401525Y-86671632D01*
X121608368Y-86878475D01*
X121782760Y-86995000D01*
X121608368Y-87111525D01*
X121401525Y-87318368D01*
X121360344Y-87380000D01*
X120820469Y-87380000D01*
X120777000Y-87375719D01*
X120733531Y-87380000D01*
X120733523Y-87380000D01*
X120603510Y-87392805D01*
X120436686Y-87443411D01*
X120282941Y-87525589D01*
X120181953Y-87608468D01*
X120181951Y-87608470D01*
X120148183Y-87636183D01*
X120120470Y-87669951D01*
X117664951Y-90125471D01*
X117631184Y-90153183D01*
X117603471Y-90186951D01*
X117603468Y-90186954D01*
X117520590Y-90287941D01*
X117438412Y-90441687D01*
X117387805Y-90608510D01*
X117370719Y-90782000D01*
X117375001Y-90825479D01*
X117375000Y-92604940D01*
X117217748Y-92710013D01*
X116990013Y-92937748D01*
X116884941Y-93095000D01*
X113135059Y-93095000D01*
X113029987Y-92937748D01*
X112802252Y-92710013D01*
X112534463Y-92531082D01*
X112236912Y-92407832D01*
X111921033Y-92345000D01*
X111598967Y-92345000D01*
X111283088Y-92407832D01*
X110985537Y-92531082D01*
X110717748Y-92710013D01*
X110490013Y-92937748D01*
X110311082Y-93205537D01*
X110187832Y-93503088D01*
X110125000Y-93818967D01*
X110125000Y-94141033D01*
X110187832Y-94456912D01*
X110311082Y-94754463D01*
X110490013Y-95022252D01*
X110717748Y-95249987D01*
X110985537Y-95428918D01*
X111283088Y-95552168D01*
X111598967Y-95615000D01*
X111921033Y-95615000D01*
X112236912Y-95552168D01*
X112534463Y-95428918D01*
X112802252Y-95249987D01*
X113029987Y-95022252D01*
X113135059Y-94865000D01*
X116884941Y-94865000D01*
X116990013Y-95022252D01*
X117217748Y-95249987D01*
X117485537Y-95428918D01*
X117783088Y-95552168D01*
X118098967Y-95615000D01*
X118421033Y-95615000D01*
X118736912Y-95552168D01*
X119034463Y-95428918D01*
X119302252Y-95249987D01*
X119529987Y-95022252D01*
X119708918Y-94754463D01*
X119832168Y-94456912D01*
X119895000Y-94141033D01*
X119895000Y-93818967D01*
X119832168Y-93503088D01*
X119708918Y-93205537D01*
X119529987Y-92937748D01*
X119302252Y-92710013D01*
X119145000Y-92604941D01*
X119145000Y-91148578D01*
X121143579Y-89150000D01*
X121360344Y-89150000D01*
X121401525Y-89211632D01*
X121608368Y-89418475D01*
X121851589Y-89580990D01*
X122121842Y-89692932D01*
X122408740Y-89750000D01*
X122701260Y-89750000D01*
X122988158Y-89692932D01*
X123258411Y-89580990D01*
X123501632Y-89418475D01*
X123626710Y-89293397D01*
X124246208Y-89293397D01*
X124323843Y-89542472D01*
X124587883Y-89668371D01*
X124871411Y-89740339D01*
X125163531Y-89755611D01*
X125453019Y-89713599D01*
X125728747Y-89615919D01*
X125866157Y-89542472D01*
X125943792Y-89293397D01*
X125095000Y-88444605D01*
X124246208Y-89293397D01*
X123626710Y-89293397D01*
X123708475Y-89211632D01*
X123824311Y-89038271D01*
X124066603Y-89113792D01*
X124915395Y-88265000D01*
X124066603Y-87416208D01*
X123824311Y-87491729D01*
X123708475Y-87318368D01*
X123501632Y-87111525D01*
X123327240Y-86995000D01*
X123501632Y-86878475D01*
X123708475Y-86671632D01*
X123825000Y-86497240D01*
X123941525Y-86671632D01*
X124148368Y-86878475D01*
X124321729Y-86994311D01*
X124246208Y-87236603D01*
X125095000Y-88085395D01*
X125943792Y-87236603D01*
X125868271Y-86994311D01*
X126041632Y-86878475D01*
X126248475Y-86671632D01*
X126365000Y-86497240D01*
X126481525Y-86671632D01*
X126688368Y-86878475D01*
X126862760Y-86995000D01*
X126688368Y-87111525D01*
X126481525Y-87318368D01*
X126365689Y-87491729D01*
X126123397Y-87416208D01*
X125274605Y-88265000D01*
X126123397Y-89113792D01*
X126365689Y-89038271D01*
X126481525Y-89211632D01*
X126688368Y-89418475D01*
X126931589Y-89580990D01*
X127201842Y-89692932D01*
X127488740Y-89750000D01*
X127781260Y-89750000D01*
X128068158Y-89692932D01*
X128338411Y-89580990D01*
X128581632Y-89418475D01*
X128788475Y-89211632D01*
X128905000Y-89037240D01*
X129021525Y-89211632D01*
X129228368Y-89418475D01*
X129471589Y-89580990D01*
X129741842Y-89692932D01*
X130028740Y-89750000D01*
X130321260Y-89750000D01*
X130608158Y-89692932D01*
X130878411Y-89580990D01*
X131121632Y-89418475D01*
X131253487Y-89286620D01*
X131275498Y-89359180D01*
X131334463Y-89469494D01*
X131413815Y-89566185D01*
X131510506Y-89645537D01*
X131620820Y-89704502D01*
X131740518Y-89740812D01*
X131865000Y-89753072D01*
X133565000Y-89753072D01*
X133689482Y-89740812D01*
X133809180Y-89704502D01*
X133919494Y-89645537D01*
X134016185Y-89566185D01*
X134095537Y-89469494D01*
X134154502Y-89359180D01*
X134190812Y-89239482D01*
X134203072Y-89115000D01*
X134203072Y-87415000D01*
X134190812Y-87290518D01*
X134154502Y-87170820D01*
X134095537Y-87060506D01*
X134016185Y-86963815D01*
X133919494Y-86884463D01*
X133809180Y-86825498D01*
X133736620Y-86803487D01*
X133868475Y-86671632D01*
X134030990Y-86428411D01*
X134142932Y-86158158D01*
X134200000Y-85871260D01*
X134200000Y-85578740D01*
X134142932Y-85291842D01*
X134030990Y-85021589D01*
X133868475Y-84778368D01*
X133661632Y-84571525D01*
X133418411Y-84409010D01*
X133148158Y-84297068D01*
X132861260Y-84240000D01*
X132568740Y-84240000D01*
X132281842Y-84297068D01*
X132011589Y-84409010D01*
X131768368Y-84571525D01*
X131561525Y-84778368D01*
X131445000Y-84952760D01*
X131328475Y-84778368D01*
X131121632Y-84571525D01*
X130878411Y-84409010D01*
X130608158Y-84297068D01*
X130321260Y-84240000D01*
X130028740Y-84240000D01*
X129741842Y-84297068D01*
X129471589Y-84409010D01*
X129228368Y-84571525D01*
X129021525Y-84778368D01*
X128905000Y-84952760D01*
X128788475Y-84778368D01*
X128581632Y-84571525D01*
X128520000Y-84530344D01*
X128520000Y-73965000D01*
X129584941Y-73965000D01*
X129690013Y-74122252D01*
X129917748Y-74349987D01*
X130185537Y-74528918D01*
X130483088Y-74652168D01*
X130798967Y-74715000D01*
X131121033Y-74715000D01*
X131436912Y-74652168D01*
X131734463Y-74528918D01*
X132002252Y-74349987D01*
X132229987Y-74122252D01*
X132408918Y-73854463D01*
X132532168Y-73556912D01*
X132595000Y-73241033D01*
X132595000Y-72918967D01*
X132532168Y-72603088D01*
X132408918Y-72305537D01*
X132229987Y-72037748D01*
X132002252Y-71810013D01*
X131734463Y-71631082D01*
X131436912Y-71507832D01*
X131121033Y-71445000D01*
X130798967Y-71445000D01*
X130483088Y-71507832D01*
X130185537Y-71631082D01*
X129917748Y-71810013D01*
X129690013Y-72037748D01*
X129584941Y-72195000D01*
X127733469Y-72195000D01*
X127690000Y-72190719D01*
X127646531Y-72195000D01*
X125835059Y-72195000D01*
X125729987Y-72037748D01*
X125502252Y-71810013D01*
X125234463Y-71631082D01*
X124936912Y-71507832D01*
X124621033Y-71445000D01*
X124298967Y-71445000D01*
X123983088Y-71507832D01*
X123685537Y-71631082D01*
X123417748Y-71810013D01*
X123190013Y-72037748D01*
X123011082Y-72305537D01*
X122887832Y-72603088D01*
X122825000Y-72918967D01*
X122825000Y-73241033D01*
X122887832Y-73556912D01*
X123011082Y-73854463D01*
X123190013Y-74122252D01*
X123417748Y-74349987D01*
X123685537Y-74528918D01*
X123983088Y-74652168D01*
X124298967Y-74715000D01*
X124621033Y-74715000D01*
X124936912Y-74652168D01*
X125234463Y-74528918D01*
X125502252Y-74349987D01*
X125729987Y-74122252D01*
X125835059Y-73965000D01*
X126750001Y-73965000D01*
X126750000Y-76211521D01*
X126750000Y-76878476D01*
X126750001Y-76878486D01*
X126750000Y-84530344D01*
X126688368Y-84571525D01*
X126481525Y-84778368D01*
X126365000Y-84952760D01*
X126248475Y-84778368D01*
X126041632Y-84571525D01*
X125980000Y-84530344D01*
X125980000Y-79958466D01*
X125984281Y-79914999D01*
X125980000Y-79871533D01*
X125980000Y-79871523D01*
X125967195Y-79741510D01*
X125916589Y-79574687D01*
X125834411Y-79420941D01*
X125723817Y-79286183D01*
X125690044Y-79258466D01*
X125465537Y-79033959D01*
X125465532Y-79033953D01*
X119858103Y-73426525D01*
X119895000Y-73241033D01*
X119895000Y-72918967D01*
X119832168Y-72603088D01*
X119708918Y-72305537D01*
X119529987Y-72037748D01*
X119302252Y-71810013D01*
X119034463Y-71631082D01*
X118736912Y-71507832D01*
X118421033Y-71445000D01*
X118098967Y-71445000D01*
X117783088Y-71507832D01*
X117485537Y-71631082D01*
X117217748Y-71810013D01*
X116990013Y-72037748D01*
X116884941Y-72195000D01*
X113135059Y-72195000D01*
X113029987Y-72037748D01*
X112802252Y-71810013D01*
X112534463Y-71631082D01*
X112236912Y-71507832D01*
X111921033Y-71445000D01*
X111598967Y-71445000D01*
X111283088Y-71507832D01*
X110985537Y-71631082D01*
X110717748Y-71810013D01*
X110490013Y-72037748D01*
X110311082Y-72305537D01*
X110187832Y-72603088D01*
X110125000Y-72918967D01*
X106917122Y-72918967D01*
X107178669Y-72810631D01*
X107544729Y-72566038D01*
X107856038Y-72254729D01*
X108100631Y-71888669D01*
X108269110Y-71481925D01*
X108355000Y-71050128D01*
X108355000Y-70609872D01*
X134365000Y-70609872D01*
X134365000Y-71050128D01*
X134450890Y-71481925D01*
X134619369Y-71888669D01*
X134863962Y-72254729D01*
X135175271Y-72566038D01*
X135541331Y-72810631D01*
X135948075Y-72979110D01*
X136379872Y-73065000D01*
X136820128Y-73065000D01*
X137251925Y-72979110D01*
X137658669Y-72810631D01*
X138024729Y-72566038D01*
X138336038Y-72254729D01*
X138580631Y-71888669D01*
X138749110Y-71481925D01*
X138835000Y-71050128D01*
X138835000Y-70609872D01*
X138749110Y-70178075D01*
X138580631Y-69771331D01*
X138336038Y-69405271D01*
X138024729Y-69093962D01*
X137658669Y-68849369D01*
X137251925Y-68680890D01*
X136820128Y-68595000D01*
X136379872Y-68595000D01*
X135948075Y-68680890D01*
X135541331Y-68849369D01*
X135175271Y-69093962D01*
X134863962Y-69405271D01*
X134619369Y-69771331D01*
X134450890Y-70178075D01*
X134365000Y-70609872D01*
X108355000Y-70609872D01*
X108269110Y-70178075D01*
X108100631Y-69771331D01*
X108063268Y-69715413D01*
X110804192Y-69715413D01*
X110899956Y-69979814D01*
X111189571Y-70120704D01*
X111501108Y-70202384D01*
X111822595Y-70221718D01*
X112141675Y-70177961D01*
X112446088Y-70072795D01*
X112620044Y-69979814D01*
X112715808Y-69715413D01*
X117304192Y-69715413D01*
X117399956Y-69979814D01*
X117689571Y-70120704D01*
X118001108Y-70202384D01*
X118322595Y-70221718D01*
X118641675Y-70177961D01*
X118946088Y-70072795D01*
X119120044Y-69979814D01*
X119215808Y-69715413D01*
X123504192Y-69715413D01*
X123599956Y-69979814D01*
X123889571Y-70120704D01*
X124201108Y-70202384D01*
X124522595Y-70221718D01*
X124841675Y-70177961D01*
X125146088Y-70072795D01*
X125320044Y-69979814D01*
X125415808Y-69715413D01*
X130004192Y-69715413D01*
X130099956Y-69979814D01*
X130389571Y-70120704D01*
X130701108Y-70202384D01*
X131022595Y-70221718D01*
X131341675Y-70177961D01*
X131646088Y-70072795D01*
X131820044Y-69979814D01*
X131915808Y-69715413D01*
X130960000Y-68759605D01*
X130004192Y-69715413D01*
X125415808Y-69715413D01*
X124460000Y-68759605D01*
X123504192Y-69715413D01*
X119215808Y-69715413D01*
X118260000Y-68759605D01*
X117304192Y-69715413D01*
X112715808Y-69715413D01*
X111760000Y-68759605D01*
X110804192Y-69715413D01*
X108063268Y-69715413D01*
X107856038Y-69405271D01*
X107544729Y-69093962D01*
X107178669Y-68849369D01*
X106771925Y-68680890D01*
X106340128Y-68595000D01*
X105899872Y-68595000D01*
X105468075Y-68680890D01*
X105061331Y-68849369D01*
X104695271Y-69093962D01*
X104383962Y-69405271D01*
X104139369Y-69771331D01*
X103970890Y-70178075D01*
X103885000Y-70609872D01*
X103022000Y-70609872D01*
X103022000Y-67560000D01*
X110560392Y-67560000D01*
X110624585Y-67624193D01*
%TA.AperFunction,Conductor*%
D19*
G36*
X110624585Y-67624193D02*
G01*
X110360186Y-67719956D01*
X110219296Y-68009571D01*
X110137616Y-68321108D01*
X110118282Y-68642595D01*
X110162039Y-68961675D01*
X110267205Y-69266088D01*
X110360186Y-69440044D01*
X110624587Y-69535808D01*
X111580395Y-68580000D01*
X111566253Y-68565858D01*
X111745858Y-68386253D01*
X111760000Y-68400395D01*
X111774143Y-68386253D01*
X111953748Y-68565858D01*
X111939605Y-68580000D01*
X112895413Y-69535808D01*
X113159814Y-69440044D01*
X113300704Y-69150429D01*
X113382384Y-68838892D01*
X113401718Y-68517405D01*
X113357961Y-68198325D01*
X113252795Y-67893912D01*
X113159814Y-67719956D01*
X112895415Y-67624193D01*
X112959608Y-67560000D01*
X117060392Y-67560000D01*
X117124585Y-67624193D01*
X116860186Y-67719956D01*
X116719296Y-68009571D01*
X116637616Y-68321108D01*
X116618282Y-68642595D01*
X116662039Y-68961675D01*
X116767205Y-69266088D01*
X116860186Y-69440044D01*
X117124587Y-69535808D01*
X118080395Y-68580000D01*
X118066253Y-68565858D01*
X118245858Y-68386253D01*
X118260000Y-68400395D01*
X118274143Y-68386253D01*
X118453748Y-68565858D01*
X118439605Y-68580000D01*
X119395413Y-69535808D01*
X119659814Y-69440044D01*
X119800704Y-69150429D01*
X119882384Y-68838892D01*
X119901718Y-68517405D01*
X119857961Y-68198325D01*
X119752795Y-67893912D01*
X119659814Y-67719956D01*
X119395415Y-67624193D01*
X119459608Y-67560000D01*
X123260392Y-67560000D01*
X123324585Y-67624193D01*
X123060186Y-67719956D01*
X122919296Y-68009571D01*
X122837616Y-68321108D01*
X122818282Y-68642595D01*
X122862039Y-68961675D01*
X122967205Y-69266088D01*
X123060186Y-69440044D01*
X123324587Y-69535808D01*
X124280395Y-68580000D01*
X124266253Y-68565858D01*
X124445858Y-68386253D01*
X124460000Y-68400395D01*
X124474143Y-68386253D01*
X124653748Y-68565858D01*
X124639605Y-68580000D01*
X125595413Y-69535808D01*
X125859814Y-69440044D01*
X126000704Y-69150429D01*
X126082384Y-68838892D01*
X126101718Y-68517405D01*
X126057961Y-68198325D01*
X125952795Y-67893912D01*
X125859814Y-67719956D01*
X125595415Y-67624193D01*
X125659608Y-67560000D01*
X129760392Y-67560000D01*
X129824585Y-67624193D01*
X129560186Y-67719956D01*
X129419296Y-68009571D01*
X129337616Y-68321108D01*
X129318282Y-68642595D01*
X129362039Y-68961675D01*
X129467205Y-69266088D01*
X129560186Y-69440044D01*
X129824587Y-69535808D01*
X130780395Y-68580000D01*
X130766253Y-68565858D01*
X130945858Y-68386253D01*
X130960000Y-68400395D01*
X130974143Y-68386253D01*
X131153748Y-68565858D01*
X131139605Y-68580000D01*
X132095413Y-69535808D01*
X132359814Y-69440044D01*
X132500704Y-69150429D01*
X132582384Y-68838892D01*
X132601718Y-68517405D01*
X132557961Y-68198325D01*
X132452795Y-67893912D01*
X132359814Y-67719956D01*
X132095415Y-67624193D01*
X132159608Y-67560000D01*
X139640001Y-67560000D01*
X139640000Y-99540000D01*
X119499608Y-99540000D01*
X119395415Y-99435807D01*
X119659814Y-99340044D01*
X119800704Y-99050429D01*
X119882384Y-98738892D01*
X119901718Y-98417405D01*
X119857961Y-98098325D01*
X119752795Y-97793912D01*
X119659814Y-97619956D01*
X119395413Y-97524192D01*
X118439605Y-98480000D01*
X118453748Y-98494143D01*
X118274143Y-98673748D01*
X118260000Y-98659605D01*
X118245858Y-98673748D01*
X118066253Y-98494143D01*
X118080395Y-98480000D01*
X117124587Y-97524192D01*
X116860186Y-97619956D01*
X116719296Y-97909571D01*
X116637616Y-98221108D01*
X116618282Y-98542595D01*
X116662039Y-98861675D01*
X116767205Y-99166088D01*
X116860186Y-99340044D01*
X117124585Y-99435807D01*
X117020392Y-99540000D01*
X112999608Y-99540000D01*
X112895415Y-99435807D01*
X113159814Y-99340044D01*
X113300704Y-99050429D01*
X113382384Y-98738892D01*
X113401718Y-98417405D01*
X113357961Y-98098325D01*
X113252795Y-97793912D01*
X113159814Y-97619956D01*
X112895413Y-97524192D01*
X111939605Y-98480000D01*
X111953748Y-98494143D01*
X111774143Y-98673748D01*
X111760000Y-98659605D01*
X111745858Y-98673748D01*
X111566253Y-98494143D01*
X111580395Y-98480000D01*
X110624587Y-97524192D01*
X110360186Y-97619956D01*
X110219296Y-97909571D01*
X110137616Y-98221108D01*
X110118282Y-98542595D01*
X110162039Y-98861675D01*
X110267205Y-99166088D01*
X110360186Y-99340044D01*
X110624585Y-99435807D01*
X110520392Y-99540000D01*
X103022000Y-99540000D01*
X103022000Y-96009872D01*
X103885000Y-96009872D01*
X103885000Y-96450128D01*
X103970890Y-96881925D01*
X104139369Y-97288669D01*
X104383962Y-97654729D01*
X104695271Y-97966038D01*
X105061331Y-98210631D01*
X105468075Y-98379110D01*
X105899872Y-98465000D01*
X106340128Y-98465000D01*
X106771925Y-98379110D01*
X107178669Y-98210631D01*
X107544729Y-97966038D01*
X107856038Y-97654729D01*
X108063267Y-97344587D01*
X110804192Y-97344587D01*
X111760000Y-98300395D01*
X112715808Y-97344587D01*
X117304192Y-97344587D01*
X118260000Y-98300395D01*
X119215808Y-97344587D01*
X119120044Y-97080186D01*
X118830429Y-96939296D01*
X118518892Y-96857616D01*
X118197405Y-96838282D01*
X117878325Y-96882039D01*
X117573912Y-96987205D01*
X117399956Y-97080186D01*
X117304192Y-97344587D01*
X112715808Y-97344587D01*
X112620044Y-97080186D01*
X112330429Y-96939296D01*
X112018892Y-96857616D01*
X111697405Y-96838282D01*
X111378325Y-96882039D01*
X111073912Y-96987205D01*
X110899956Y-97080186D01*
X110804192Y-97344587D01*
X108063267Y-97344587D01*
X108100631Y-97288669D01*
X108269110Y-96881925D01*
X108355000Y-96450128D01*
X108355000Y-96009872D01*
X108327310Y-95870665D01*
X122771000Y-95870665D01*
X122771000Y-96153335D01*
X122826147Y-96430574D01*
X122934320Y-96691727D01*
X123091363Y-96926759D01*
X123291241Y-97126637D01*
X123526273Y-97283680D01*
X123787426Y-97391853D01*
X124064665Y-97447000D01*
X124347335Y-97447000D01*
X124624574Y-97391853D01*
X124885727Y-97283680D01*
X125120759Y-97126637D01*
X125320637Y-96926759D01*
X125477680Y-96691727D01*
X125585853Y-96430574D01*
X125641000Y-96153335D01*
X125641000Y-95870665D01*
X130391000Y-95870665D01*
X130391000Y-96153335D01*
X130446147Y-96430574D01*
X130554320Y-96691727D01*
X130711363Y-96926759D01*
X130911241Y-97126637D01*
X131146273Y-97283680D01*
X131407426Y-97391853D01*
X131684665Y-97447000D01*
X131967335Y-97447000D01*
X132244574Y-97391853D01*
X132505727Y-97283680D01*
X132740759Y-97126637D01*
X132940637Y-96926759D01*
X133097680Y-96691727D01*
X133205853Y-96430574D01*
X133261000Y-96153335D01*
X133261000Y-96009872D01*
X134365000Y-96009872D01*
X134365000Y-96450128D01*
X134450890Y-96881925D01*
X134619369Y-97288669D01*
X134863962Y-97654729D01*
X135175271Y-97966038D01*
X135541331Y-98210631D01*
X135948075Y-98379110D01*
X136379872Y-98465000D01*
X136820128Y-98465000D01*
X137251925Y-98379110D01*
X137658669Y-98210631D01*
X138024729Y-97966038D01*
X138336038Y-97654729D01*
X138580631Y-97288669D01*
X138749110Y-96881925D01*
X138835000Y-96450128D01*
X138835000Y-96009872D01*
X138749110Y-95578075D01*
X138580631Y-95171331D01*
X138336038Y-94805271D01*
X138024729Y-94493962D01*
X137658669Y-94249369D01*
X137251925Y-94080890D01*
X136820128Y-93995000D01*
X136379872Y-93995000D01*
X135948075Y-94080890D01*
X135541331Y-94249369D01*
X135175271Y-94493962D01*
X134863962Y-94805271D01*
X134619369Y-95171331D01*
X134450890Y-95578075D01*
X134365000Y-96009872D01*
X133261000Y-96009872D01*
X133261000Y-95870665D01*
X133205853Y-95593426D01*
X133097680Y-95332273D01*
X132940637Y-95097241D01*
X132740759Y-94897363D01*
X132505727Y-94740320D01*
X132244574Y-94632147D01*
X131967335Y-94577000D01*
X131684665Y-94577000D01*
X131407426Y-94632147D01*
X131146273Y-94740320D01*
X130911241Y-94897363D01*
X130711363Y-95097241D01*
X130554320Y-95332273D01*
X130446147Y-95593426D01*
X130391000Y-95870665D01*
X125641000Y-95870665D01*
X125585853Y-95593426D01*
X125477680Y-95332273D01*
X125320637Y-95097241D01*
X125120759Y-94897363D01*
X124885727Y-94740320D01*
X124624574Y-94632147D01*
X124347335Y-94577000D01*
X124064665Y-94577000D01*
X123787426Y-94632147D01*
X123526273Y-94740320D01*
X123291241Y-94897363D01*
X123091363Y-95097241D01*
X122934320Y-95332273D01*
X122826147Y-95593426D01*
X122771000Y-95870665D01*
X108327310Y-95870665D01*
X108269110Y-95578075D01*
X108100631Y-95171331D01*
X107856038Y-94805271D01*
X107544729Y-94493962D01*
X107178669Y-94249369D01*
X106771925Y-94080890D01*
X106340128Y-93995000D01*
X105899872Y-93995000D01*
X105468075Y-94080890D01*
X105061331Y-94249369D01*
X104695271Y-94493962D01*
X104383962Y-94805271D01*
X104139369Y-95171331D01*
X103970890Y-95578075D01*
X103885000Y-96009872D01*
X103022000Y-96009872D01*
X103022000Y-91274000D01*
X104937928Y-91274000D01*
X104950188Y-91398482D01*
X104986498Y-91518180D01*
X105045463Y-91628494D01*
X105124815Y-91725185D01*
X105221506Y-91804537D01*
X105331820Y-91863502D01*
X105451518Y-91899812D01*
X105576000Y-91912072D01*
X106140250Y-91909000D01*
X106299000Y-91750250D01*
X106299000Y-90551000D01*
X106553000Y-90551000D01*
X106553000Y-91750250D01*
X106711750Y-91909000D01*
X107276000Y-91912072D01*
X107400482Y-91899812D01*
X107520180Y-91863502D01*
X107630494Y-91804537D01*
X107727185Y-91725185D01*
X107806537Y-91628494D01*
X107865502Y-91518180D01*
X107901812Y-91398482D01*
X107914072Y-91274000D01*
X107911000Y-90709750D01*
X107752250Y-90551000D01*
X106553000Y-90551000D01*
X106299000Y-90551000D01*
X105099750Y-90551000D01*
X104941000Y-90709750D01*
X104937928Y-91274000D01*
X103022000Y-91274000D01*
X103022000Y-89574000D01*
X104937928Y-89574000D01*
X104941000Y-90138250D01*
X105099750Y-90297000D01*
X106299000Y-90297000D01*
X106299000Y-90277000D01*
X106553000Y-90277000D01*
X106553000Y-90297000D01*
X107752250Y-90297000D01*
X107911000Y-90138250D01*
X107914072Y-89574000D01*
X107901812Y-89449518D01*
X107865502Y-89329820D01*
X107806537Y-89219506D01*
X107727185Y-89122815D01*
X107630494Y-89043463D01*
X107520180Y-88984498D01*
X107447620Y-88962487D01*
X107579475Y-88830632D01*
X107741990Y-88587411D01*
X107853932Y-88317158D01*
X107911000Y-88030260D01*
X107911000Y-87737740D01*
X107853932Y-87450842D01*
X107741990Y-87180589D01*
X107579475Y-86937368D01*
X107372632Y-86730525D01*
X107129411Y-86568010D01*
X106859158Y-86456068D01*
X106572260Y-86399000D01*
X106279740Y-86399000D01*
X105992842Y-86456068D01*
X105722589Y-86568010D01*
X105479368Y-86730525D01*
X105272525Y-86937368D01*
X105110010Y-87180589D01*
X104998068Y-87450842D01*
X104941000Y-87737740D01*
X104941000Y-88030260D01*
X104998068Y-88317158D01*
X105110010Y-88587411D01*
X105272525Y-88830632D01*
X105404380Y-88962487D01*
X105331820Y-88984498D01*
X105221506Y-89043463D01*
X105124815Y-89122815D01*
X105045463Y-89219506D01*
X104986498Y-89329820D01*
X104950188Y-89449518D01*
X104937928Y-89574000D01*
X103022000Y-89574000D01*
X103022000Y-82415413D01*
X110804192Y-82415413D01*
X110899956Y-82679814D01*
X111189571Y-82820704D01*
X111501108Y-82902384D01*
X111822595Y-82921718D01*
X112141675Y-82877961D01*
X112446088Y-82772795D01*
X112620044Y-82679814D01*
X112715808Y-82415413D01*
X117304192Y-82415413D01*
X117399956Y-82679814D01*
X117689571Y-82820704D01*
X118001108Y-82902384D01*
X118322595Y-82921718D01*
X118641675Y-82877961D01*
X118946088Y-82772795D01*
X119120044Y-82679814D01*
X119215808Y-82415413D01*
X118260000Y-81459605D01*
X117304192Y-82415413D01*
X112715808Y-82415413D01*
X111760000Y-81459605D01*
X110804192Y-82415413D01*
X103022000Y-82415413D01*
X103022000Y-79150000D01*
X104911928Y-79150000D01*
X104911928Y-80850000D01*
X104924188Y-80974482D01*
X104960498Y-81094180D01*
X105019463Y-81204494D01*
X105098815Y-81301185D01*
X105195506Y-81380537D01*
X105305820Y-81439502D01*
X105425518Y-81475812D01*
X105550000Y-81488072D01*
X107250000Y-81488072D01*
X107374482Y-81475812D01*
X107494180Y-81439502D01*
X107604494Y-81380537D01*
X107650726Y-81342595D01*
X110118282Y-81342595D01*
X110162039Y-81661675D01*
X110267205Y-81966088D01*
X110360186Y-82140044D01*
X110624587Y-82235808D01*
X111580395Y-81280000D01*
X111939605Y-81280000D01*
X112895413Y-82235808D01*
X113159814Y-82140044D01*
X113300704Y-81850429D01*
X113382384Y-81538892D01*
X113394189Y-81342595D01*
X116618282Y-81342595D01*
X116662039Y-81661675D01*
X116767205Y-81966088D01*
X116860186Y-82140044D01*
X117124587Y-82235808D01*
X118080395Y-81280000D01*
X118439605Y-81280000D01*
X119395413Y-82235808D01*
X119659814Y-82140044D01*
X119800704Y-81850429D01*
X119882384Y-81538892D01*
X119901718Y-81217405D01*
X119857961Y-80898325D01*
X119752795Y-80593912D01*
X119659814Y-80419956D01*
X119395413Y-80324192D01*
X118439605Y-81280000D01*
X118080395Y-81280000D01*
X117124587Y-80324192D01*
X116860186Y-80419956D01*
X116719296Y-80709571D01*
X116637616Y-81021108D01*
X116618282Y-81342595D01*
X113394189Y-81342595D01*
X113401718Y-81217405D01*
X113357961Y-80898325D01*
X113252795Y-80593912D01*
X113159814Y-80419956D01*
X112895413Y-80324192D01*
X111939605Y-81280000D01*
X111580395Y-81280000D01*
X110624587Y-80324192D01*
X110360186Y-80419956D01*
X110219296Y-80709571D01*
X110137616Y-81021108D01*
X110118282Y-81342595D01*
X107650726Y-81342595D01*
X107701185Y-81301185D01*
X107780537Y-81204494D01*
X107839502Y-81094180D01*
X107875812Y-80974482D01*
X107888072Y-80850000D01*
X107888072Y-80144587D01*
X110804192Y-80144587D01*
X111760000Y-81100395D01*
X112715808Y-80144587D01*
X117304192Y-80144587D01*
X118260000Y-81100395D01*
X119215808Y-80144587D01*
X119120044Y-79880186D01*
X118830429Y-79739296D01*
X118518892Y-79657616D01*
X118197405Y-79638282D01*
X117878325Y-79682039D01*
X117573912Y-79787205D01*
X117399956Y-79880186D01*
X117304192Y-80144587D01*
X112715808Y-80144587D01*
X112620044Y-79880186D01*
X112330429Y-79739296D01*
X112018892Y-79657616D01*
X111697405Y-79638282D01*
X111378325Y-79682039D01*
X111073912Y-79787205D01*
X110899956Y-79880186D01*
X110804192Y-80144587D01*
X107888072Y-80144587D01*
X107888072Y-79150000D01*
X107875812Y-79025518D01*
X107839502Y-78905820D01*
X107780537Y-78795506D01*
X107701185Y-78698815D01*
X107604494Y-78619463D01*
X107494180Y-78560498D01*
X107421620Y-78538487D01*
X107553475Y-78406632D01*
X107594656Y-78345000D01*
X109983797Y-78345000D01*
X110010363Y-78384759D01*
X110210241Y-78584637D01*
X110445273Y-78741680D01*
X110706426Y-78849853D01*
X110983665Y-78905000D01*
X111266335Y-78905000D01*
X111543574Y-78849853D01*
X111804727Y-78741680D01*
X112039759Y-78584637D01*
X112239637Y-78384759D01*
X112396680Y-78149727D01*
X112504853Y-77888574D01*
X112560000Y-77611335D01*
X112560000Y-77328665D01*
X117310000Y-77328665D01*
X117310000Y-77611335D01*
X117365147Y-77888574D01*
X117473320Y-78149727D01*
X117630363Y-78384759D01*
X117830241Y-78584637D01*
X118065273Y-78741680D01*
X118326426Y-78849853D01*
X118603665Y-78905000D01*
X118886335Y-78905000D01*
X119163574Y-78849853D01*
X119424727Y-78741680D01*
X119659759Y-78584637D01*
X119859637Y-78384759D01*
X120016680Y-78149727D01*
X120124853Y-77888574D01*
X120180000Y-77611335D01*
X120180000Y-77328665D01*
X120124853Y-77051426D01*
X120016680Y-76790273D01*
X119859637Y-76555241D01*
X119659759Y-76355363D01*
X119424727Y-76198320D01*
X119163574Y-76090147D01*
X118886335Y-76035000D01*
X118603665Y-76035000D01*
X118326426Y-76090147D01*
X118065273Y-76198320D01*
X117830241Y-76355363D01*
X117630363Y-76555241D01*
X117473320Y-76790273D01*
X117365147Y-77051426D01*
X117310000Y-77328665D01*
X112560000Y-77328665D01*
X112504853Y-77051426D01*
X112396680Y-76790273D01*
X112239637Y-76555241D01*
X112039759Y-76355363D01*
X111804727Y-76198320D01*
X111543574Y-76090147D01*
X111266335Y-76035000D01*
X110983665Y-76035000D01*
X110706426Y-76090147D01*
X110445273Y-76198320D01*
X110210241Y-76355363D01*
X110010363Y-76555241D01*
X109997160Y-76575000D01*
X107594656Y-76575000D01*
X107553475Y-76513368D01*
X107346632Y-76306525D01*
X107103411Y-76144010D01*
X106833158Y-76032068D01*
X106546260Y-75975000D01*
X106253740Y-75975000D01*
X105966842Y-76032068D01*
X105696589Y-76144010D01*
X105453368Y-76306525D01*
X105246525Y-76513368D01*
X105084010Y-76756589D01*
X104972068Y-77026842D01*
X104915000Y-77313740D01*
X104915000Y-77606260D01*
X104972068Y-77893158D01*
X105084010Y-78163411D01*
X105246525Y-78406632D01*
X105378380Y-78538487D01*
X105305820Y-78560498D01*
X105195506Y-78619463D01*
X105098815Y-78698815D01*
X105019463Y-78795506D01*
X104960498Y-78905820D01*
X104924188Y-79025518D01*
X104911928Y-79150000D01*
X103022000Y-79150000D01*
X103022000Y-70609872D01*
X103885000Y-70609872D01*
X103885000Y-71050128D01*
X103970890Y-71481925D01*
X104139369Y-71888669D01*
X104383962Y-72254729D01*
X104695271Y-72566038D01*
X105061331Y-72810631D01*
X105468075Y-72979110D01*
X105899872Y-73065000D01*
X106340128Y-73065000D01*
X106771925Y-72979110D01*
X106917122Y-72918967D01*
X110125000Y-72918967D01*
X110125000Y-73241033D01*
X110187832Y-73556912D01*
X110311082Y-73854463D01*
X110490013Y-74122252D01*
X110717748Y-74349987D01*
X110985537Y-74528918D01*
X111283088Y-74652168D01*
X111598967Y-74715000D01*
X111921033Y-74715000D01*
X112236912Y-74652168D01*
X112534463Y-74528918D01*
X112802252Y-74349987D01*
X113029987Y-74122252D01*
X113135059Y-73965000D01*
X116884941Y-73965000D01*
X116990013Y-74122252D01*
X117217748Y-74349987D01*
X117485537Y-74528918D01*
X117783088Y-74652168D01*
X118098967Y-74715000D01*
X118421033Y-74715000D01*
X118606525Y-74678103D01*
X124210001Y-80281580D01*
X124210000Y-84530344D01*
X124148368Y-84571525D01*
X123941525Y-84778368D01*
X123825000Y-84952760D01*
X123708475Y-84778368D01*
X123501632Y-84571525D01*
X123258411Y-84409010D01*
X122988158Y-84297068D01*
X122701260Y-84240000D01*
X122408740Y-84240000D01*
X122121842Y-84297068D01*
X121851589Y-84409010D01*
X121608368Y-84571525D01*
X121401525Y-84778368D01*
X121323594Y-84895000D01*
X119635059Y-84895000D01*
X119529987Y-84737748D01*
X119302252Y-84510013D01*
X119034463Y-84331082D01*
X118736912Y-84207832D01*
X118421033Y-84145000D01*
X118098967Y-84145000D01*
X117783088Y-84207832D01*
X117485537Y-84331082D01*
X117217748Y-84510013D01*
X116990013Y-84737748D01*
X116884941Y-84895000D01*
X113135059Y-84895000D01*
X113029987Y-84737748D01*
X112802252Y-84510013D01*
X112534463Y-84331082D01*
X112236912Y-84207832D01*
X111921033Y-84145000D01*
X111598967Y-84145000D01*
X111283088Y-84207832D01*
X110985537Y-84331082D01*
X110717748Y-84510013D01*
X110490013Y-84737748D01*
X110311082Y-85005537D01*
X110187832Y-85303088D01*
X110125000Y-85618967D01*
X110125000Y-85941033D01*
X110187832Y-86256912D01*
X110311082Y-86554463D01*
X110490013Y-86822252D01*
X110717748Y-87049987D01*
X110985537Y-87228918D01*
X111283088Y-87352168D01*
X111598967Y-87415000D01*
X111921033Y-87415000D01*
X112236912Y-87352168D01*
X112534463Y-87228918D01*
X112802252Y-87049987D01*
X113029987Y-86822252D01*
X113135059Y-86665000D01*
X116884941Y-86665000D01*
X116990013Y-86822252D01*
X117217748Y-87049987D01*
X117485537Y-87228918D01*
X117783088Y-87352168D01*
X118098967Y-87415000D01*
X118421033Y-87415000D01*
X118736912Y-87352168D01*
X119034463Y-87228918D01*
X119302252Y-87049987D01*
X119529987Y-86822252D01*
X119635059Y-86665000D01*
X121397094Y-86665000D01*
X121401525Y-86671632D01*
X121608368Y-86878475D01*
X121782760Y-86995000D01*
X121608368Y-87111525D01*
X121401525Y-87318368D01*
X121360344Y-87380000D01*
X120820469Y-87380000D01*
X120777000Y-87375719D01*
X120733531Y-87380000D01*
X120733523Y-87380000D01*
X120603510Y-87392805D01*
X120436686Y-87443411D01*
X120282941Y-87525589D01*
X120181953Y-87608468D01*
X120181951Y-87608470D01*
X120148183Y-87636183D01*
X120120470Y-87669951D01*
X117664951Y-90125471D01*
X117631184Y-90153183D01*
X117603471Y-90186951D01*
X117603468Y-90186954D01*
X117520590Y-90287941D01*
X117438412Y-90441687D01*
X117387805Y-90608510D01*
X117370719Y-90782000D01*
X117375001Y-90825479D01*
X117375000Y-92604940D01*
X117217748Y-92710013D01*
X116990013Y-92937748D01*
X116884941Y-93095000D01*
X113135059Y-93095000D01*
X113029987Y-92937748D01*
X112802252Y-92710013D01*
X112534463Y-92531082D01*
X112236912Y-92407832D01*
X111921033Y-92345000D01*
X111598967Y-92345000D01*
X111283088Y-92407832D01*
X110985537Y-92531082D01*
X110717748Y-92710013D01*
X110490013Y-92937748D01*
X110311082Y-93205537D01*
X110187832Y-93503088D01*
X110125000Y-93818967D01*
X110125000Y-94141033D01*
X110187832Y-94456912D01*
X110311082Y-94754463D01*
X110490013Y-95022252D01*
X110717748Y-95249987D01*
X110985537Y-95428918D01*
X111283088Y-95552168D01*
X111598967Y-95615000D01*
X111921033Y-95615000D01*
X112236912Y-95552168D01*
X112534463Y-95428918D01*
X112802252Y-95249987D01*
X113029987Y-95022252D01*
X113135059Y-94865000D01*
X116884941Y-94865000D01*
X116990013Y-95022252D01*
X117217748Y-95249987D01*
X117485537Y-95428918D01*
X117783088Y-95552168D01*
X118098967Y-95615000D01*
X118421033Y-95615000D01*
X118736912Y-95552168D01*
X119034463Y-95428918D01*
X119302252Y-95249987D01*
X119529987Y-95022252D01*
X119708918Y-94754463D01*
X119832168Y-94456912D01*
X119895000Y-94141033D01*
X119895000Y-93818967D01*
X119832168Y-93503088D01*
X119708918Y-93205537D01*
X119529987Y-92937748D01*
X119302252Y-92710013D01*
X119145000Y-92604941D01*
X119145000Y-91148578D01*
X121143579Y-89150000D01*
X121360344Y-89150000D01*
X121401525Y-89211632D01*
X121608368Y-89418475D01*
X121851589Y-89580990D01*
X122121842Y-89692932D01*
X122408740Y-89750000D01*
X122701260Y-89750000D01*
X122988158Y-89692932D01*
X123258411Y-89580990D01*
X123501632Y-89418475D01*
X123626710Y-89293397D01*
X124246208Y-89293397D01*
X124323843Y-89542472D01*
X124587883Y-89668371D01*
X124871411Y-89740339D01*
X125163531Y-89755611D01*
X125453019Y-89713599D01*
X125728747Y-89615919D01*
X125866157Y-89542472D01*
X125943792Y-89293397D01*
X125095000Y-88444605D01*
X124246208Y-89293397D01*
X123626710Y-89293397D01*
X123708475Y-89211632D01*
X123824311Y-89038271D01*
X124066603Y-89113792D01*
X124915395Y-88265000D01*
X124066603Y-87416208D01*
X123824311Y-87491729D01*
X123708475Y-87318368D01*
X123501632Y-87111525D01*
X123327240Y-86995000D01*
X123501632Y-86878475D01*
X123708475Y-86671632D01*
X123825000Y-86497240D01*
X123941525Y-86671632D01*
X124148368Y-86878475D01*
X124321729Y-86994311D01*
X124246208Y-87236603D01*
X125095000Y-88085395D01*
X125943792Y-87236603D01*
X125868271Y-86994311D01*
X126041632Y-86878475D01*
X126248475Y-86671632D01*
X126365000Y-86497240D01*
X126481525Y-86671632D01*
X126688368Y-86878475D01*
X126862760Y-86995000D01*
X126688368Y-87111525D01*
X126481525Y-87318368D01*
X126365689Y-87491729D01*
X126123397Y-87416208D01*
X125274605Y-88265000D01*
X126123397Y-89113792D01*
X126365689Y-89038271D01*
X126481525Y-89211632D01*
X126688368Y-89418475D01*
X126931589Y-89580990D01*
X127201842Y-89692932D01*
X127488740Y-89750000D01*
X127781260Y-89750000D01*
X128068158Y-89692932D01*
X128338411Y-89580990D01*
X128581632Y-89418475D01*
X128788475Y-89211632D01*
X128905000Y-89037240D01*
X129021525Y-89211632D01*
X129228368Y-89418475D01*
X129471589Y-89580990D01*
X129741842Y-89692932D01*
X130028740Y-89750000D01*
X130321260Y-89750000D01*
X130608158Y-89692932D01*
X130878411Y-89580990D01*
X131121632Y-89418475D01*
X131253487Y-89286620D01*
X131275498Y-89359180D01*
X131334463Y-89469494D01*
X131413815Y-89566185D01*
X131510506Y-89645537D01*
X131620820Y-89704502D01*
X131740518Y-89740812D01*
X131865000Y-89753072D01*
X133565000Y-89753072D01*
X133689482Y-89740812D01*
X133809180Y-89704502D01*
X133919494Y-89645537D01*
X134016185Y-89566185D01*
X134095537Y-89469494D01*
X134154502Y-89359180D01*
X134190812Y-89239482D01*
X134203072Y-89115000D01*
X134203072Y-87415000D01*
X134190812Y-87290518D01*
X134154502Y-87170820D01*
X134095537Y-87060506D01*
X134016185Y-86963815D01*
X133919494Y-86884463D01*
X133809180Y-86825498D01*
X133736620Y-86803487D01*
X133868475Y-86671632D01*
X134030990Y-86428411D01*
X134142932Y-86158158D01*
X134200000Y-85871260D01*
X134200000Y-85578740D01*
X134142932Y-85291842D01*
X134030990Y-85021589D01*
X133868475Y-84778368D01*
X133661632Y-84571525D01*
X133418411Y-84409010D01*
X133148158Y-84297068D01*
X132861260Y-84240000D01*
X132568740Y-84240000D01*
X132281842Y-84297068D01*
X132011589Y-84409010D01*
X131768368Y-84571525D01*
X131561525Y-84778368D01*
X131445000Y-84952760D01*
X131328475Y-84778368D01*
X131121632Y-84571525D01*
X130878411Y-84409010D01*
X130608158Y-84297068D01*
X130321260Y-84240000D01*
X130028740Y-84240000D01*
X129741842Y-84297068D01*
X129471589Y-84409010D01*
X129228368Y-84571525D01*
X129021525Y-84778368D01*
X128905000Y-84952760D01*
X128788475Y-84778368D01*
X128581632Y-84571525D01*
X128520000Y-84530344D01*
X128520000Y-73965000D01*
X129584941Y-73965000D01*
X129690013Y-74122252D01*
X129917748Y-74349987D01*
X130185537Y-74528918D01*
X130483088Y-74652168D01*
X130798967Y-74715000D01*
X131121033Y-74715000D01*
X131436912Y-74652168D01*
X131734463Y-74528918D01*
X132002252Y-74349987D01*
X132229987Y-74122252D01*
X132408918Y-73854463D01*
X132532168Y-73556912D01*
X132595000Y-73241033D01*
X132595000Y-72918967D01*
X132532168Y-72603088D01*
X132408918Y-72305537D01*
X132229987Y-72037748D01*
X132002252Y-71810013D01*
X131734463Y-71631082D01*
X131436912Y-71507832D01*
X131121033Y-71445000D01*
X130798967Y-71445000D01*
X130483088Y-71507832D01*
X130185537Y-71631082D01*
X129917748Y-71810013D01*
X129690013Y-72037748D01*
X129584941Y-72195000D01*
X127733469Y-72195000D01*
X127690000Y-72190719D01*
X127646531Y-72195000D01*
X125835059Y-72195000D01*
X125729987Y-72037748D01*
X125502252Y-71810013D01*
X125234463Y-71631082D01*
X124936912Y-71507832D01*
X124621033Y-71445000D01*
X124298967Y-71445000D01*
X123983088Y-71507832D01*
X123685537Y-71631082D01*
X123417748Y-71810013D01*
X123190013Y-72037748D01*
X123011082Y-72305537D01*
X122887832Y-72603088D01*
X122825000Y-72918967D01*
X122825000Y-73241033D01*
X122887832Y-73556912D01*
X123011082Y-73854463D01*
X123190013Y-74122252D01*
X123417748Y-74349987D01*
X123685537Y-74528918D01*
X123983088Y-74652168D01*
X124298967Y-74715000D01*
X124621033Y-74715000D01*
X124936912Y-74652168D01*
X125234463Y-74528918D01*
X125502252Y-74349987D01*
X125729987Y-74122252D01*
X125835059Y-73965000D01*
X126750001Y-73965000D01*
X126750000Y-76211521D01*
X126750000Y-76878476D01*
X126750001Y-76878486D01*
X126750000Y-84530344D01*
X126688368Y-84571525D01*
X126481525Y-84778368D01*
X126365000Y-84952760D01*
X126248475Y-84778368D01*
X126041632Y-84571525D01*
X125980000Y-84530344D01*
X125980000Y-79958466D01*
X125984281Y-79914999D01*
X125980000Y-79871533D01*
X125980000Y-79871523D01*
X125967195Y-79741510D01*
X125916589Y-79574687D01*
X125834411Y-79420941D01*
X125723817Y-79286183D01*
X125690044Y-79258466D01*
X125465537Y-79033959D01*
X125465532Y-79033953D01*
X119858103Y-73426525D01*
X119895000Y-73241033D01*
X119895000Y-72918967D01*
X119832168Y-72603088D01*
X119708918Y-72305537D01*
X119529987Y-72037748D01*
X119302252Y-71810013D01*
X119034463Y-71631082D01*
X118736912Y-71507832D01*
X118421033Y-71445000D01*
X118098967Y-71445000D01*
X117783088Y-71507832D01*
X117485537Y-71631082D01*
X117217748Y-71810013D01*
X116990013Y-72037748D01*
X116884941Y-72195000D01*
X113135059Y-72195000D01*
X113029987Y-72037748D01*
X112802252Y-71810013D01*
X112534463Y-71631082D01*
X112236912Y-71507832D01*
X111921033Y-71445000D01*
X111598967Y-71445000D01*
X111283088Y-71507832D01*
X110985537Y-71631082D01*
X110717748Y-71810013D01*
X110490013Y-72037748D01*
X110311082Y-72305537D01*
X110187832Y-72603088D01*
X110125000Y-72918967D01*
X106917122Y-72918967D01*
X107178669Y-72810631D01*
X107544729Y-72566038D01*
X107856038Y-72254729D01*
X108100631Y-71888669D01*
X108269110Y-71481925D01*
X108355000Y-71050128D01*
X108355000Y-70609872D01*
X134365000Y-70609872D01*
X134365000Y-71050128D01*
X134450890Y-71481925D01*
X134619369Y-71888669D01*
X134863962Y-72254729D01*
X135175271Y-72566038D01*
X135541331Y-72810631D01*
X135948075Y-72979110D01*
X136379872Y-73065000D01*
X136820128Y-73065000D01*
X137251925Y-72979110D01*
X137658669Y-72810631D01*
X138024729Y-72566038D01*
X138336038Y-72254729D01*
X138580631Y-71888669D01*
X138749110Y-71481925D01*
X138835000Y-71050128D01*
X138835000Y-70609872D01*
X138749110Y-70178075D01*
X138580631Y-69771331D01*
X138336038Y-69405271D01*
X138024729Y-69093962D01*
X137658669Y-68849369D01*
X137251925Y-68680890D01*
X136820128Y-68595000D01*
X136379872Y-68595000D01*
X135948075Y-68680890D01*
X135541331Y-68849369D01*
X135175271Y-69093962D01*
X134863962Y-69405271D01*
X134619369Y-69771331D01*
X134450890Y-70178075D01*
X134365000Y-70609872D01*
X108355000Y-70609872D01*
X108269110Y-70178075D01*
X108100631Y-69771331D01*
X108063268Y-69715413D01*
X110804192Y-69715413D01*
X110899956Y-69979814D01*
X111189571Y-70120704D01*
X111501108Y-70202384D01*
X111822595Y-70221718D01*
X112141675Y-70177961D01*
X112446088Y-70072795D01*
X112620044Y-69979814D01*
X112715808Y-69715413D01*
X117304192Y-69715413D01*
X117399956Y-69979814D01*
X117689571Y-70120704D01*
X118001108Y-70202384D01*
X118322595Y-70221718D01*
X118641675Y-70177961D01*
X118946088Y-70072795D01*
X119120044Y-69979814D01*
X119215808Y-69715413D01*
X123504192Y-69715413D01*
X123599956Y-69979814D01*
X123889571Y-70120704D01*
X124201108Y-70202384D01*
X124522595Y-70221718D01*
X124841675Y-70177961D01*
X125146088Y-70072795D01*
X125320044Y-69979814D01*
X125415808Y-69715413D01*
X130004192Y-69715413D01*
X130099956Y-69979814D01*
X130389571Y-70120704D01*
X130701108Y-70202384D01*
X131022595Y-70221718D01*
X131341675Y-70177961D01*
X131646088Y-70072795D01*
X131820044Y-69979814D01*
X131915808Y-69715413D01*
X130960000Y-68759605D01*
X130004192Y-69715413D01*
X125415808Y-69715413D01*
X124460000Y-68759605D01*
X123504192Y-69715413D01*
X119215808Y-69715413D01*
X118260000Y-68759605D01*
X117304192Y-69715413D01*
X112715808Y-69715413D01*
X111760000Y-68759605D01*
X110804192Y-69715413D01*
X108063268Y-69715413D01*
X107856038Y-69405271D01*
X107544729Y-69093962D01*
X107178669Y-68849369D01*
X106771925Y-68680890D01*
X106340128Y-68595000D01*
X105899872Y-68595000D01*
X105468075Y-68680890D01*
X105061331Y-68849369D01*
X104695271Y-69093962D01*
X104383962Y-69405271D01*
X104139369Y-69771331D01*
X103970890Y-70178075D01*
X103885000Y-70609872D01*
X103022000Y-70609872D01*
X103022000Y-67560000D01*
X110560392Y-67560000D01*
X110624585Y-67624193D01*
G37*
%TD.AperFunction*%
%TD*%
M02*
