%TF.GenerationSoftware,KiCad,Pcbnew,5.1.8-5.1.8*%
%TF.CreationDate,2022-06-15T01:07:19+02:00*%
%TF.ProjectId,FloppyEmuButtonPanel,466c6f70-7079-4456-9d75-427574746f6e,1.0*%
%TF.SameCoordinates,Original*%
%TF.FileFunction,Soldermask,Bot*%
%TF.FilePolarity,Negative*%
%FSLAX46Y46*%
G04 Gerber Fmt 4.6, Leading zero omitted, Abs format (unit mm)*
G04 Created by KiCad (PCBNEW 5.1.8-5.1.8) date 2022-06-15 01:07:19*
%MOMM*%
%LPD*%
G01*
G04 APERTURE LIST*
%ADD10C,1.700000*%
%ADD11R,1.700000X1.700000*%
%ADD12C,3.200000*%
%ADD13C,1.600000*%
%ADD14O,1.600000X1.600000*%
%ADD15O,1.700000X1.700000*%
%ADD16C,2.000000*%
G04 APERTURE END LIST*
D10*
%TO.C,J1*%
X122555000Y-85725000D03*
X122555000Y-88265000D03*
X125095000Y-85725000D03*
X125095000Y-88265000D03*
X127635000Y-85725000D03*
X127635000Y-88265000D03*
X130175000Y-85725000D03*
X130175000Y-88265000D03*
X132715000Y-85725000D03*
D11*
X132715000Y-88265000D03*
%TD*%
D12*
%TO.C,H4*%
X136600000Y-96230000D03*
%TD*%
%TO.C,H3*%
X136600000Y-70830000D03*
%TD*%
%TO.C,H2*%
X106120000Y-70830000D03*
%TD*%
%TO.C,H1*%
X106120000Y-96230000D03*
%TD*%
D13*
%TO.C,R2*%
X131826000Y-96012000D03*
D14*
X124206000Y-96012000D03*
%TD*%
D11*
%TO.C,D2*%
X106426000Y-90424000D03*
D15*
X106426000Y-87884000D03*
%TD*%
D13*
%TO.C,R1*%
X118745000Y-77470000D03*
D14*
X111125000Y-77470000D03*
%TD*%
D11*
%TO.C,D1*%
X106400000Y-80000000D03*
D15*
X106400000Y-77460000D03*
%TD*%
D16*
%TO.C,SW1*%
X118260000Y-68580000D03*
X118260000Y-73080000D03*
X111760000Y-68580000D03*
X111760000Y-73080000D03*
%TD*%
%TO.C,SW2*%
X111760000Y-85780000D03*
X111760000Y-81280000D03*
X118260000Y-85780000D03*
X118260000Y-81280000D03*
%TD*%
%TO.C,SW3*%
X118260000Y-93980000D03*
X118260000Y-98480000D03*
X111760000Y-93980000D03*
X111760000Y-98480000D03*
%TD*%
%TO.C,SW4*%
X124460000Y-73080000D03*
X124460000Y-68580000D03*
X130960000Y-73080000D03*
X130960000Y-68580000D03*
%TD*%
M02*
